<svg width="54" height="80" fill="none" xmlns="http://www.w3.org/2000/svg"><path d="M2.855 31.166l30.372-17.541-30.582 5.713.21 11.828z" fill="url(#paint0_linear)"/><path d="M43.289 54.263l.002-.002a7.22 7.22 0 01-.03-.626V10.501c0-4.075-2.193-7.873-5.722-9.91a4.313 4.313 0 00-4.357 0L2.81 18.132s2.14.043 5.597 2.203c3.457 2.161 3.457 17.102 3.457 17.102s-.37 29.635-.575 34.82c-.205 5.187 8.482 7.153 8.482 7.153L43.29 65.737V54.263z" fill="url(#paint1_linear)"/><path d="M19.727 67.872l30.37-17.541 2.223 1.283-30.37 17.542-2.223-1.284z" fill="#E9E5F6"/><path d="M52.32 51.614L21.95 69.156 19.772 79.41l30.372-17.544v.003l.049-.03.059-.035v-.003A4.303 4.303 0 0052.32 58.1v-6.486z" fill="url(#paint2_linear)"/><path d="M19.726 67.872v7.77c0 .77-.398 1.458-1.065 1.843a2.108 2.108 0 01-2.129 0 7.305 7.305 0 01-3.642-6.308V28.042c0-4.075-2.192-7.872-5.722-9.91a4.313 4.313 0 00-4.357 0 4.313 4.313 0 00-2.178 3.774v7.977l2.222 1.284v-9.261c0-.772.4-1.463 1.068-1.849a2.112 2.112 0 012.134 0 9.246 9.246 0 014.61 7.986v43.134a9.534 9.534 0 004.754 8.233c.681.394 1.429.59 2.176.59.747 0 1.495-.196 2.176-.59a4.308 4.308 0 002.176-3.769v-6.485l-2.223-1.284z" fill="#A996EB"/><path d="M21.83 26.784l13.722-7.922v3.4l-13.722 7.92v-3.4zm-4.246 11.478l22.213-12.825v1.835L17.584 40.097v-1.835zm0 6.319l22.213-12.824v1.834L17.584 46.416V44.58zm0 6.319l22.213-12.824v1.835L17.584 52.735v-1.834zm0 6.32l22.213-12.825v1.835L17.584 59.054V57.22zm0 6.32l22.213-12.825v1.834L17.584 65.374v-1.835z" fill="#594A8E"/><path d="M33.502 38.89l-2.59-1.492v19.088l2.59 1.493 15.716-28.162-15.716 9.073z" fill="#802129"/><path d="M49.218 48.906l-7.858-.286-7.858 9.36V38.89l15.716-9.073v19.089z" fill="url(#paint3_linear)"/><path d="M37.475 53.247V36.63l7.827-4.553v16.698l-3.942-.155-3.885 4.627z" fill="url(#paint4_linear)"/><path d="M49.65 10.737l-4.302-2.482c-1.862-1.06-4.284-.953-6.932.576C32.543 12.22 27.78 21.319 27.78 29.15c0 4.128 1.324 7.08 3.436 8.452l4.737 2.738c1.84.97 13.696-29.603 13.696-29.603z" fill="url(#paint5_linear)"/><path d="M53.367 19.36c0-7.83-4.761-11.43-10.635-8.039-5.873 3.391-10.634 12.489-10.634 20.32 0 7.83 4.76 11.43 10.634 8.04 5.873-3.392 10.635-12.489 10.635-20.32z" fill="url(#paint6_linear)"/><path d="M53.368 19.361c0-2.467-.473-4.514-1.305-6.055L37.627 40.889c1.516.233 3.256-.14 5.106-1.209A14.709 14.709 0 0045 38.05l8.126-15.528c.159-1.065.243-2.124.243-3.16z" fill="url(#paint7_linear)"/><path d="M42.732 11.322c-.47.27-.932.579-1.385.92l-9.16 17.5c-.059.638-.09 1.273-.09 1.899 0 4.115 1.316 7.06 3.416 8.438l15.026-28.712c-1.942-1.678-4.72-1.827-7.807-.045z" fill="url(#paint8_linear)"/><path d="M51.194 20.616c0-6.231-3.788-9.095-8.461-6.397-4.673 2.698-8.461 9.936-8.461 16.167 0 6.23 3.788 9.095 8.46 6.397 4.674-2.698 8.462-9.937 8.462-16.167z" fill="url(#paint9_linear)"/><path d="M47.38 13.39c1.323 1.226 2.127 3.38 2.127 6.25 0 6.232-3.788 13.47-8.46 16.168-1.717.99-3.313 1.23-4.647.83 1.55 1.437 3.813 1.6 6.334.145 4.673-2.698 8.46-9.936 8.46-16.167.001-3.943-1.516-6.537-3.815-7.227z" fill="url(#paint10_linear)"/><path d="M41.907 15.786l1.938 4.832 4.842-2.178-3.645 6.4 1.056 5.722-4.19-.876-4.191 5.715 1.056-6.942-3.646-2.19 4.843-3.414 1.937-7.07z" fill="url(#paint11_linear)"/><path d="M41.908 15.786l.979 10.373-2.916-3.304 1.937-7.07z" fill="url(#paint12_linear)"/><path d="M42.886 26.159l-7.759.11 3.646 2.19 4.113-2.3z" fill="url(#paint13_linear)"/><path d="M37.717 35.401l5.17-9.242-.98 3.527-4.19 5.715z" fill="url(#paint14_linear)"/><path d="M43.845 20.618l-.958 5.54 5.801-7.719-4.843 2.179z" fill="url(#paint15_linear)"/><path d="M42.887 26.159l3.211 4.403-1.056-5.722-2.155 1.319z" fill="url(#paint16_linear)"/><defs><linearGradient id="paint0_linear" x1="17.936" y1="15.582" x2="17.936" y2="27.065" gradientUnits="userSpaceOnUse"><stop stop-color="#A996EB"/><stop offset="1" stop-color="#D7D1EB"/></linearGradient><linearGradient id="paint1_linear" x1="17.719" y1="23.983" x2="14.069" y2="17.66" gradientUnits="userSpaceOnUse"><stop stop-color="#D7D1EB"/><stop offset="1" stop-color="#E9E5F6"/></linearGradient><linearGradient id="paint2_linear" x1="39.184" y1="70.946" x2="35.403" y2="64.396" gradientUnits="userSpaceOnUse"><stop stop-color="#A996EB"/><stop offset="1" stop-color="#D7D1EB"/></linearGradient><linearGradient id="paint3_linear" x1="41.36" y1="61.968" x2="41.36" y2="28.019" gradientUnits="userSpaceOnUse"><stop stop-color="#FF4757"/><stop offset=".303" stop-color="#FF5261"/><stop offset=".836" stop-color="#FF707C"/><stop offset="1" stop-color="#FF7A85"/></linearGradient><linearGradient id="paint4_linear" x1="41.389" y1="48.513" x2="41.389" y2="16.87" gradientUnits="userSpaceOnUse"><stop stop-color="#AB2C37"/><stop offset=".205" stop-color="#B6303B"/><stop offset=".568" stop-color="#D43947"/><stop offset="1" stop-color="#FF4757"/></linearGradient><linearGradient id="paint5_linear" x1="33" y1="30.048" x2="39.84" y2="18.202" gradientUnits="userSpaceOnUse"><stop stop-color="#E37A34"/><stop offset="1" stop-color="#FFC538"/></linearGradient><linearGradient id="paint6_linear" x1="42.732" y1="35.082" x2="42.732" y2="-8.837" gradientUnits="userSpaceOnUse"><stop stop-color="#F7E041"/><stop offset="1" stop-color="#FCF3B3"/></linearGradient><linearGradient id="paint7_linear" x1="55.06" y1="32.995" x2="43.16" y2="26.124" gradientUnits="userSpaceOnUse"><stop stop-color="#fff"/><stop offset="1" stop-color="#fff" stop-opacity="0"/></linearGradient><linearGradient id="paint8_linear" x1="50.07" y1="29.733" x2="30.319" y2="18.329" gradientUnits="userSpaceOnUse"><stop stop-color="#fff"/><stop offset="1" stop-color="#fff" stop-opacity="0"/></linearGradient><linearGradient id="paint9_linear" x1="42.733" y1="30.217" x2="42.733" y2="1.598" gradientUnits="userSpaceOnUse"><stop stop-color="#FFC538"/><stop offset="1" stop-color="#F7E041"/></linearGradient><linearGradient id="paint10_linear" x1="39.868" y1="35.894" x2="50.048" y2="18.262" gradientUnits="userSpaceOnUse"><stop stop-color="#E37A34"/><stop offset="1" stop-color="#FFC538"/></linearGradient><linearGradient id="paint11_linear" x1="41.907" y1="36.163" x2="31.325" y2="17.834" gradientUnits="userSpaceOnUse"><stop stop-color="#F7E041"/><stop offset="1" stop-color="#FCF3B3"/></linearGradient><linearGradient id="paint12_linear" x1="40.99" y1="27.791" x2="42.301" y2="17.979" gradientUnits="userSpaceOnUse"><stop stop-color="#E37A34"/><stop offset=".368" stop-color="#EF9B36"/><stop offset=".772" stop-color="#FBBA37"/><stop offset="1" stop-color="#FFC538"/></linearGradient><linearGradient id="paint13_linear" x1="41.445" y1="23.511" x2="36.817" y2="28.64" gradientUnits="userSpaceOnUse"><stop stop-color="#E37A34"/><stop offset="1" stop-color="#FFC538"/></linearGradient><linearGradient id="paint14_linear" x1="38.288" y1="35.983" x2="41.494" y2="28.746" gradientUnits="userSpaceOnUse"><stop stop-color="#E37A34"/><stop offset="1" stop-color="#FFC538"/></linearGradient><linearGradient id="paint15_linear" x1="37.849" y1="20.499" x2="46.204" y2="22.394" gradientUnits="userSpaceOnUse"><stop stop-color="#E37A34"/><stop offset="1" stop-color="#FFC538"/></linearGradient><linearGradient id="paint16_linear" x1="41.856" y1="31.564" x2="46.374" y2="26.075" gradientUnits="userSpaceOnUse"><stop stop-color="#E37A34"/><stop offset="1" stop-color="#FFC538"/></linearGradient></defs></svg>