<svg width="61" height="65" fill="none" xmlns="http://www.w3.org/2000/svg"><path d="M24.813 22.127c-13.586 0-24.6 11.015-24.6 24.6v5.482H.22c-.002 3.263 1.966 6.379 5.997 8.706 8.895 5.136 24.43 4.491 34.701-1.438 5.617-3.243 8.489-7.395 8.489-11.332h.007v-1.417c0-13.587-11.014-24.6-24.6-24.6z" fill="url(#paint0_linear)"/><path d="M49.406 48.145h.007v-1.417c0-8.05-3.866-15.195-9.842-19.683l-8.246 8.552c-.604.626-1.009 1.617-1.009 2.468v6.977c0 5.065 1.667 8.83 4.462 10.442l.027.017.013.007 2.44 1.409a6.432 6.432 0 003.274 1.24l2.162.2c4.444-3.048 6.712-6.715 6.712-10.212z" fill="url(#paint1_linear)"/><path d="M59.497 28.552l-2.918-1.685c-.248-.15-.408-.287-.685-.254l-9.29 1.092c-.245.029-.5.12-.754.267-.254.147-.509.35-.753.603l-9.29 9.635c-.603.626-1.008 1.616-1.008 2.467v6.978c0 5.064 1.667 8.829 4.461 10.441v.001l.027.016.013.007 2.44 1.41 17.757-30.978z" fill="url(#paint2_linear)"/><path d="M43.503 53.135l-8.7-5.023c.097 4.834 1.747 8.421 4.456 9.985l.027.017.013.007 2.44 1.409 1.564-2.728.2-3.667z" fill="url(#paint3_linear)"/><path d="M58.993 28.45l-9.29 1.093c-.488.057-1.018.363-1.506.87l-9.29 9.634c-.604.626-1.009 1.617-1.009 2.468v6.977c0 6.51 2.754 10.874 7.116 11.278l3.02.28c.576.053 1.256-.34 1.832-1.059l3.02-3.765C57.247 50.784 60 43.24 60 36.73v-6.977c0-.851-.405-1.374-1.008-1.303z" fill="url(#paint4_linear)"/><path d="M48.95 31.842a.673.673 0 01.255-.091l9.271-1.09v6.95c0 2.817-.586 5.912-1.695 8.95-1.11 3.038-2.693 5.889-4.581 8.244l-3.02 3.765a.853.853 0 01-.231.208.397.397 0 01-.232.06l-3.019-.28c-1.888-.174-3.472-1.196-4.581-2.953-1.109-1.758-1.695-4.176-1.695-6.993v-6.95l9.27-9.615c.084-.086.17-.155.257-.205z" fill="url(#paint5_linear)"/><path d="M48.285 47.132l-4.668.192v2.2l.004.002c-.023.608.134 1.122.474 1.38l3.036 2.294c.319.24.736.212 1.154-.03.418-.24.836-.695 1.155-1.304l-1.155-4.734z" fill="url(#paint6_linear)"/><path d="M54.675 36.467c-.638-.45-1.671.115-2.31 1.334L48.4 45.377l-.461-.318-1.611-.937v.004c-.642-.383-1.62.211-2.233 1.382-.637 1.219-.637 2.597 0 3.08l3.036 2.294c.06.045.123.078.189.104l-.001.003 1.618.943 7.244-14.591-1.506-.874z" fill="url(#paint7_linear)"/><path d="M45.806 49.574l-1.712-.988.002.002 3.035 2.294c.06.045.123.078.19.104l-.002.003 1.618.943.08-.16-3.21-2.198z" fill="url(#paint8_linear)"/><path d="M54.675 36.467c-.637-.45-1.671.115-2.31 1.334L48.4 45.377l1.596 1.206 6.185-9.242-1.506-.874z" fill="url(#paint9_linear)"/><path d="M49.996 51.84c-.418.24-.836.27-1.154.028l-3.035-2.294c-.638-.482-.638-1.861 0-3.08.637-1.218 1.671-1.815 2.31-1.333l1.88 1.421 4.08-7.795c.637-1.219 1.671-1.816 2.309-1.334.638.482.638 1.861 0 3.08l-5.235 10.002c-.319.61-.737 1.063-1.155 1.304z" fill="url(#paint10_linear)"/><path d="M5.496 31.494h19.317l-2.712-9.217c-6.72.737-12.627 4.18-16.605 9.217z" fill="url(#paint11_linear)"/><path d="M24.814 31.491c8.695 0 15.743-7.048 15.743-15.743S33.51.004 24.814.004 9.07 7.053 9.07 15.748 16.12 31.49 24.814 31.49z" fill="url(#paint12_radial)"/><defs><linearGradient id="paint0_linear" x1=".213" y1="43.255" x2="49.414" y2="43.255" gradientUnits="userSpaceOnUse"><stop stop-color="#C5BAEB"/><stop offset=".349" stop-color="#D7D1EB"/><stop offset="1" stop-color="#F2EFFA"/></linearGradient><linearGradient id="paint1_linear" x1="39.865" y1="69.527" x2="39.865" y2="25.223" gradientUnits="userSpaceOnUse"><stop offset=".032" stop-color="#7662BD"/><stop offset="1" stop-color="#7662BD" stop-opacity="0"/></linearGradient><linearGradient id="paint2_linear" x1="41.139" y1="44.677" x2="52.706" y2="24.643" gradientUnits="userSpaceOnUse"><stop offset=".032" stop-color="#A996EB"/><stop offset=".065" stop-color="#B3A3ED"/><stop offset=".141" stop-color="#C7BBF0"/><stop offset=".229" stop-color="#D6CEF3"/><stop offset=".331" stop-color="#E1DBF5"/><stop offset=".461" stop-color="#E7E3F6"/><stop offset=".719" stop-color="#E9E5F6"/><stop offset=".763" stop-color="#DFDAF0"/><stop offset=".825" stop-color="#D9D3EC"/><stop offset="1" stop-color="#D7D1EB"/></linearGradient><linearGradient id="paint3_linear" x1="39.153" y1="46.081" x2="39.153" y2="53.347" gradientUnits="userSpaceOnUse"><stop offset=".032" stop-color="#7662BD"/><stop offset="1" stop-color="#7662BD" stop-opacity="0"/></linearGradient><linearGradient id="paint4_linear" x1="48.95" y1="62.486" x2="48.95" y2="36.135" gradientUnits="userSpaceOnUse"><stop stop-color="#DFDAEF"/><stop offset="1" stop-color="#fff"/></linearGradient><linearGradient id="paint5_linear" x1="48.949" y1="63.86" x2="48.949" y2="37.808" gradientUnits="userSpaceOnUse"><stop stop-color="#2F878A"/><stop offset="1" stop-color="#06DAAE"/></linearGradient><linearGradient id="paint6_linear" x1="46.529" y1="44.745" x2="46.529" y2="54.468" gradientUnits="userSpaceOnUse"><stop offset=".032" stop-color="#1A4C4E"/><stop offset="1" stop-color="#1A4C4E" stop-opacity="0"/></linearGradient><linearGradient id="paint7_linear" x1="46.139" y1="49.364" x2="47.887" y2="46.361" gradientUnits="userSpaceOnUse"><stop offset=".032" stop-color="#A996EB"/><stop offset=".682" stop-color="#D7CFF3"/><stop offset="1" stop-color="#E9E5F6"/></linearGradient><linearGradient id="paint8_linear" x1="47.637" y1="51.071" x2="45.177" y2="49.044" gradientUnits="userSpaceOnUse"><stop offset=".032" stop-color="#7662BD"/><stop offset="1" stop-color="#7662BD" stop-opacity="0"/></linearGradient><linearGradient id="paint9_linear" x1="49.552" y1="45.678" x2="53.246" y2="39.331" gradientUnits="userSpaceOnUse"><stop offset=".032" stop-color="#A996EB"/><stop offset=".682" stop-color="#D7CFF3"/><stop offset="1" stop-color="#E9E5F6"/></linearGradient><linearGradient id="paint10_linear" x1="51.096" y1="51.671" x2="51.096" y2="40.554" gradientUnits="userSpaceOnUse"><stop stop-color="#DFDAEF"/><stop offset="1" stop-color="#fff"/></linearGradient><linearGradient id="paint11_linear" x1="25.572" y1="26.886" x2="6.534" y2="26.886" gradientUnits="userSpaceOnUse"><stop offset=".032" stop-color="#7662BD"/><stop offset="1" stop-color="#7662BD" stop-opacity="0"/></linearGradient><radialGradient id="paint12_radial" cx="0" cy="0" r="1" gradientUnits="userSpaceOnUse" gradientTransform="translate(28.22 10.082) scale(22.356)"><stop stop-color="#E7E3F3"/><stop offset=".391" stop-color="#DCD6F0"/><stop offset="1" stop-color="#C5BAEB"/></radialGradient></defs></svg>