<svg width="48" height="80" fill="none" xmlns="http://www.w3.org/2000/svg"><path d="M35.885 1.308L33.978.173c-.376-.246-.879-.24-1.431.08L2.867 17.389C1.7 18.062.755 19.867.755 21.421v55.606c0 .918.33 1.543.84 1.761l.901.548.79.463 32.6-78.491z" fill="url(#paint0_linear)"/><path d="M34.44 62.61L4.758 79.748c-1.166.673-2.11-.042-2.11-1.596V22.546c0-1.554.944-3.36 2.11-4.032l29.68-17.136c1.166-.673 2.11.04 2.11 1.595v55.605c0 1.554-.944 3.36-2.11 4.032z" fill="url(#paint1_linear)"/><path d="M33.82 35.882c-5.134 2.964-9.295 10.914-9.295 17.758v6.938h.004c-.001.058-.004.117-.004.175 0 2.857.728 5.065 1.947 6.458l7.967-4.6c1.166-.673 2.11-2.478 2.11-4.033V34.853c-.863.145-1.78.48-2.73 1.03z" fill="url(#paint2_linear)"/><path d="M31.942 47.47L9.346 60.423c-.656.379-1.188 1.394-1.188 2.269 0 .874.532 1.276 1.188.897l22.596-12.955c.655-.378 1.187-1.394 1.187-2.268 0-.875-.532-1.276-1.187-.898zM19.279 60.72l-9.933 5.703c-.656.379-1.188 1.394-1.188 2.269 0 .874.532 1.276 1.188.897l9.933-5.703c.655-.379 1.187-1.394 1.187-2.269 0-.874-.532-1.276-1.188-.897z" fill="#43386B"/><path d="M12.132 27.215l-3.206 1.851v11l3.206-1.85v-11z" fill="#06DAAE"/><path d="M17.001 27.533l-3.206 1.851v7.872L17 35.406v-7.873z" fill="#F7E041"/><path d="M21.868 26.677l-3.206 1.851v5.917l3.206-1.85v-5.918z" fill="#FF4757"/><path d="M26.738 18.783l-3.207 1.851v11.001l3.207-1.851v-11z" fill="#06DAAE"/><path d="M31.605 11.229l-3.207 1.85v15.745l3.207-1.85V11.228z" fill="#59ACF9"/><path d="M15.348 41.88c.663 0 .964 1.173.964 2.262 0 2.79-1.776 6.263-3.8 7.431-.353.204-.685.316-.937.316-.662 0-.964-1.172-.964-2.262 0-2.79 1.776-6.262 3.8-7.431.353-.204.686-.316.937-.316zm0-1.9c-.578 0-1.216.183-1.886.57-2.624 1.515-4.751 5.58-4.751 9.078 0 2.604 1.18 4.161 2.865 4.161.578 0 1.216-.183 1.886-.57 2.623-1.515 4.75-5.579 4.75-9.077 0-2.605-1.179-4.162-2.864-4.162z" fill="#43386B"/><path d="M18.212 44.142c0-2.605-1.18-4.162-2.865-4.162-.578 0-1.216.183-1.886.57v2.376c.306-.294.625-.542.95-.73.352-.204.685-.316.936-.316.663 0 .965 1.173.965 2.262 0 .373-.033.76-.093 1.15l1.993-1.15z" fill="#FF4757"/><path d="M28.623 34.26c.663 0 .965 1.173.965 2.262 0 2.79-1.776 6.263-3.801 7.432-.352.204-.685.316-.936.316-.663 0-.965-1.173-.965-2.262 0-2.79 1.776-6.263 3.801-7.432.353-.203.685-.315.936-.315zm0-1.9c-.578 0-1.216.184-1.886.571-2.624 1.515-4.75 5.579-4.75 9.077 0 2.605 1.179 4.162 2.864 4.162.578 0 1.216-.183 1.886-.57 2.624-1.515 4.75-5.579 4.75-9.077 0-2.605-1.178-4.162-2.864-4.162z" fill="#43386B"/><path d="M28.622 32.36c-.578 0-1.215.184-1.886.571v2.376a4.99 4.99 0 01.95-.73c.353-.204.685-.316.937-.316.662 0 .964 1.172.964 2.262 0 2.341-1.251 5.163-2.85 6.701V45.6c2.623-1.515 4.75-5.579 4.75-9.077 0-2.605-1.18-4.162-2.865-4.162z" fill="#06DAAE"/><path d="M41.504 62.336a3.355 3.355 0 005.74-2.36 3.34 3.34 0 00-.93-2.314l.002-.001-2.85-2.836c-.035-.04-.07-.08-.107-.119l-3.97 5.512 2.115 2.118z" fill="url(#paint3_linear)"/><path d="M45.996 44.538c0-3.53-1.107-6.076-2.883-7.307a4.672 4.672 0 00-.7-.4l-2.488-1.425c-1.633-.956-3.769-.873-6.106.476-5.133 2.964-9.294 10.914-9.294 17.758 0 3.674 1.2 6.282 3.106 7.45v.001c.099.06 2.864 1.619 2.864 1.619 1.646 1.02 3.822.963 6.208-.414.934-.54 1.836-1.245 2.686-2.078l3.97-5.512c1.632-3.174 2.637-6.804 2.637-10.168z" fill="url(#paint4_linear)"/><path d="M36.785 57.607l4.74-4.74 1.773 1.774a3.355 3.355 0 01-2.386 5.713 3.34 3.34 0 01-2.237-.86l-.001.002-1.889-1.889z" fill="url(#paint5_linear)"/><path d="M27.408 55.27c0 6.844 4.161 9.99 9.294 7.026 5.133-2.964 9.294-10.914 9.294-17.758 0-6.843-4.16-9.99-9.294-7.026-5.133 2.964-9.294 10.914-9.294 17.758z" fill="url(#paint6_linear)"/><path d="M30.293 53.605c0 4.72 2.87 6.89 6.41 4.846 3.54-2.044 6.41-7.527 6.41-12.248 0-4.72-2.87-6.89-6.41-4.846-3.54 2.044-6.41 7.528-6.41 12.248z" fill="url(#paint7_linear)"/><path opacity=".2" d="M30.293 53.605c0-1.425.262-2.92.725-4.37l8.649 6.538c-.887 1.13-1.895 2.061-2.964 2.678-.765.442-1.498.686-2.178.751l-3.852-2.912c-.246-.765-.38-1.665-.38-2.685zm6.411-12.248c.738-.426 1.447-.668 2.108-.743l3.947 2.984c.23.748.355 1.62.355 2.605 0 2.28-.67 4.738-1.76 6.9l-9.063-6.85c1.15-2.119 2.703-3.908 4.413-4.896z" fill="#fff"/><defs><linearGradient id="paint0_linear" x1="14.092" y1="29.061" x2="17.982" y2="22.324" gradientUnits="userSpaceOnUse"><stop offset=".032" stop-color="#A996EB"/><stop offset=".221" stop-color="#BFB3EB"/><stop offset=".411" stop-color="#D1C9EB"/><stop offset=".532" stop-color="#D7D1EB"/><stop offset="1" stop-color="#E9E5F6"/></linearGradient><linearGradient id="paint1_linear" x1="19.599" y1="120.391" x2="19.599" y2="3.88" gradientUnits="userSpaceOnUse"><stop stop-color="#DFDAEF"/><stop offset="1" stop-color="#fff"/></linearGradient><linearGradient id="paint2_linear" x1="30.538" y1="49.83" x2="30.538" y2="68.139" gradientUnits="userSpaceOnUse"><stop offset=".032" stop-color="#7662BD"/><stop offset="1" stop-color="#7662BD" stop-opacity="0"/></linearGradient><linearGradient id="paint3_linear" x1="41.351" y1="61.797" x2="45.459" y2="57.914" gradientUnits="userSpaceOnUse"><stop stop-color="#43386B"/><stop offset=".167" stop-color="#4F437A"/><stop offset=".486" stop-color="#6E60A1"/><stop offset=".923" stop-color="#A08DDF"/><stop offset="1" stop-color="#A996EB"/></linearGradient><linearGradient id="paint4_linear" x1="30.425" y1="57.435" x2="41.409" y2="38.409" gradientUnits="userSpaceOnUse"><stop offset=".032" stop-color="#43386B"/><stop offset=".084" stop-color="#4D407B"/><stop offset=".22" stop-color="#63529F"/><stop offset=".331" stop-color="#715EB5"/><stop offset=".402" stop-color="#7662BD"/><stop offset=".573" stop-color="#7360B9"/><stop offset=".753" stop-color="#6C59AC"/><stop offset=".936" stop-color="#5F4F97"/><stop offset="1" stop-color="#594A8E"/></linearGradient><linearGradient id="paint5_linear" x1="39.684" y1="58.955" x2="42.292" y2="55.637" gradientUnits="userSpaceOnUse"><stop stop-color="#C5BAEB"/><stop offset=".349" stop-color="#D7D1EB"/><stop offset="1" stop-color="#F2EFFA"/></linearGradient><linearGradient id="paint6_linear" x1="36.702" y1="66.53" x2="36.702" y2="32.653" gradientUnits="userSpaceOnUse"><stop offset=".032" stop-color="#43386B"/><stop offset=".193" stop-color="#4F437A"/><stop offset=".503" stop-color="#6E60A1"/><stop offset=".925" stop-color="#A08DDF"/><stop offset="1" stop-color="#A996EB"/></linearGradient><linearGradient id="paint7_linear" x1="36.703" y1="58.358" x2="36.703" y2="31.441" gradientUnits="userSpaceOnUse"><stop stop-color="#C5BAEB"/><stop offset="1" stop-color="#fff"/></linearGradient></defs></svg>