<svg width="60" height="80" fill="none" xmlns="http://www.w3.org/2000/svg"><path d="M58.096 4.515L51.318.602c-.576-.348-.948-.667-1.592-.59L28.15 2.547c-.567.067-1.158.278-1.749.62a8.083 8.083 0 00-1.749 1.4L3.076 26.945C1.675 28.398.734 30.7.734 32.675v16.206c0 11.762 3.872 20.505 10.361 24.25v.002l.064.037.03.017 5.666 3.272 41.24-71.944z" fill="url(#paint0_linear)"/><path d="M20.953 61.608L.746 49.942c.227 11.226 4.057 19.557 10.35 23.19l.063.038.03.017 5.667 3.272 3.631-6.335.466-8.516z" fill="url(#paint1_linear)"/><path d="M56.923 4.279L35.347 6.815c-1.133.134-2.364.845-3.498 2.02L10.273 31.212c-1.401 1.453-2.341 3.755-2.341 5.73v16.206c0 15.12 6.394 25.253 16.526 26.192l7.012.649c1.34.124 2.917-.787 4.256-2.457l7.012-8.746C52.87 56.148 59.265 38.63 59.265 23.511V7.306c0-1.977-.94-3.192-2.342-3.027z" fill="url(#paint2_linear)"/><path d="M33.6 12.155c.202-.117.402-.188.594-.21l21.532-2.533v16.143c0 6.542-1.362 13.73-3.937 20.786-2.576 7.056-6.255 13.676-10.64 19.145l-7.011 8.746a1.993 1.993 0 01-.539.48.926.926 0 01-.538.141l-7.012-.649c-4.385-.406-8.064-2.778-10.64-6.86-2.575-4.082-3.936-9.697-3.936-16.24V34.962L33.005 12.63c.191-.199.391-.36.594-.476z" fill="url(#paint3_linear)"/><path d="M47.82 38.136c.64-.37 1.16-1.36 1.16-2.213s-.52-1.245-1.16-.876l-6.253 3.611v-1.57c1.804-1.373 3.473-3.422 4.782-5.925l2.29-4.375c.453-.864.453-1.842 0-2.184-.452-.342-1.184.082-1.637.945l-2.29 4.376c-.875 1.672-1.97 3.07-3.161 4.056-.08-1.141-.82-1.648-1.733-1.122l-.024.014c0-2.615-1.059-4.285-2.633-4.619.174-1.852.764-3.814 1.719-5.637l.102-.196c.452-.865.45-1.842-.002-2.183-.454-.34-1.187.084-1.638.949l-.101.193c-1.216 2.324-2.008 4.814-2.312 7.198a5.699 5.699 0 00-.977.563c-.304-2.032-1.095-3.608-2.31-4.526l-.103-.078c-.452-.343-1.184.078-1.637.943-.453.863-.454 1.842-.003 2.184l.104.079c.953.72 1.543 2 1.717 3.652-1.574 2.152-2.633 5.044-2.633 7.66l-.024.014c-.912.526-1.652 1.888-1.733 3.122-1.19.387-2.285.255-3.161-.406l-2.29-1.731c-.452-.342-1.185.081-1.637.945-.453.864-.453 1.842 0 2.184l2.29 1.731c1.31.99 2.979 1.113 4.783.402v1.57l-6.255 3.611c-.64.37-1.158 1.36-1.158 2.213s.519 1.245 1.159.876l6.254-3.611v1.57c-1.805 1.373-3.474 3.423-4.784 5.926l-2.29 4.375c-.452.864-.452 1.842 0 2.183.227.171.523.151.82-.02.296-.171.592-.493.818-.925l2.29-4.375c.883-1.687 1.99-3.093 3.193-4.081.398 4.516 3.413 6.465 7.079 4.35 3.665-2.117 6.68-7.549 7.078-12.524 1.203-.4 2.31-.273 3.193.395l2.29 1.73c.226.171.523.151.819-.02.296-.171.592-.493.819-.925.452-.865.452-1.842 0-2.184l-2.29-1.73c-1.31-.991-2.979-1.114-4.784-.402v-1.572l6.255-3.61z" fill="url(#paint4_linear)"/><defs><linearGradient id="paint0_linear" x1="15.46" y1="41.964" x2="42.323" y2="-4.564" gradientUnits="userSpaceOnUse"><stop offset=".032" stop-color="#A996EB"/><stop offset=".065" stop-color="#B3A3ED"/><stop offset=".141" stop-color="#C7BBF0"/><stop offset=".229" stop-color="#D6CEF3"/><stop offset=".331" stop-color="#E1DBF5"/><stop offset=".461" stop-color="#E7E3F6"/><stop offset=".719" stop-color="#E9E5F6"/><stop offset=".763" stop-color="#DFDAF0"/><stop offset=".825" stop-color="#D9D3EC"/><stop offset="1" stop-color="#D7D1EB"/></linearGradient><linearGradient id="paint1_linear" x1="10.849" y1="45.225" x2="10.849" y2="62.1" gradientUnits="userSpaceOnUse"><stop offset=".032" stop-color="#7662BD"/><stop offset="1" stop-color="#7662BD" stop-opacity="0"/></linearGradient><linearGradient id="paint2_linear" x1="33.598" y1="83.325" x2="33.598" y2="22.127" gradientUnits="userSpaceOnUse"><stop stop-color="#DFDAEF"/><stop offset="1" stop-color="#fff"/></linearGradient><linearGradient id="paint3_linear" x1="33.599" y1="86.517" x2="33.599" y2="26.012" gradientUnits="userSpaceOnUse"><stop stop-color="#43386B"/><stop offset="1" stop-color="#7662BD"/></linearGradient><linearGradient id="paint4_linear" x1="34.441" y1="58.005" x2="34.441" y2="10.823" gradientUnits="userSpaceOnUse"><stop stop-color="#DFDAEF"/><stop offset="1" stop-color="#fff"/></linearGradient></defs></svg>