<svg width="56" height="80" fill="none" xmlns="http://www.w3.org/2000/svg"><path d="M40.222.622L39.136 0 14.963 13.955.768 41.077v38.301L1.853 80 40.222.622z" fill="url(#paint0_linear)"/><path d="M15.628 14.82l-.665-.865L39.136 0l1.086.622-24.594 14.197z" fill="url(#paint1_linear)"/><path d="M1.854 80V41.7l13.774-26.88L40.222.621v57.226L1.854 80z" fill="url(#paint2_linear)"/><path d="M.768 41.077l1.085 3.435 14.195-8.196V16.73L.768 41.077z" fill="url(#paint3_linear)"/><path d="M14.963 13.955L.768 41.077a2.175 2.175 0 002.168-.004l13.112-7.57V15.828c0-.774-.414-1.489-1.085-1.873z" fill="url(#paint4_linear)"/><path d="M40.221 30.429l-4.513.53a2.17 2.17 0 00-.823.292 3.8 3.8 0 00-.822.658L23.917 42.431c-.659.683-1.1 1.766-1.1 2.695v7.62c0 5.53 1.82 9.641 4.871 11.402l.03.018.014.008.765.442 11.724-6.769V30.43z" fill="url(#paint5_linear)"/><path d="M54.68 34.737l-3.186-1.84c-.27-.163-.446-.313-.748-.277L40.6 33.813a2.17 2.17 0 00-.822.29 3.82 3.82 0 00-.823.66L28.81 45.283c-.659.684-1.101 1.766-1.101 2.695v7.62c0 5.53 1.82 9.641 4.872 11.402v.001l.03.017.014.008 2.664 1.539 19.392-33.829z" fill="url(#paint6_linear)"/><path d="M37.216 61.583l-9.501-5.486c.106 5.28 1.908 9.197 4.867 10.904v.001l.03.017.013.008 2.665 1.539 1.708-2.979.218-4.004z" fill="url(#paint7_linear)"/><path d="M54.13 34.626L43.985 35.82c-.533.063-1.112.397-1.645.95L32.195 47.29c-.66.683-1.101 1.765-1.101 2.694v7.62c0 7.109 3.007 11.874 7.77 12.315l3.298.306c.63.058 1.371-.37 2.001-1.156l3.297-4.112c4.764-5.942 7.771-14.18 7.771-21.289v-7.62c0-.929-.442-1.5-1.1-1.423z" fill="url(#paint8_linear)"/><path d="M43.162 38.33a.735.735 0 01.28-.1l10.124-1.19v7.59c0 3.077-.64 6.456-1.851 9.774-1.211 3.318-2.941 6.43-5.003 9.002l-3.297 4.112a.938.938 0 01-.253.227.434.434 0 01-.253.066l-3.297-.306c-2.062-.19-3.792-1.306-5.003-3.225-1.211-1.92-1.851-4.56-1.851-7.636v-7.59l10.124-10.5c.09-.094.185-.17.28-.224z" fill="url(#paint9_linear)"/><path d="M42.436 55.028l-5.098.21v2.401l.004.003c-.025.664.146 1.225.518 1.506l3.315 2.506c.348.263.804.232 1.26-.031.457-.264.914-.76 1.262-1.425l-1.261-5.17z" fill="url(#paint10_linear)"/><path d="M49.414 43.38c-.697-.491-1.826.126-2.523 1.457l-4.33 8.273-.504-.347-1.76-1.022v.003c-.7-.418-1.768.231-2.437 1.51-.696 1.33-.696 2.837 0 3.363l3.315 2.506a.905.905 0 00.206.113l-.001.003 1.767 1.03 7.911-15.934s-1.64-.95-1.644-.954z" fill="url(#paint11_linear)"/><path d="M39.727 57.695l-1.87-1.08.003.002 3.314 2.506a.89.89 0 00.207.113l-.002.003 1.768 1.03.086-.174-3.506-2.4z" fill="url(#paint12_linear)"/><path d="M49.413 43.38c-.696-.491-1.826.126-2.522 1.457l-4.33 8.273 1.742 1.318 6.755-10.093-1.645-.954z" fill="url(#paint13_linear)"/><path d="M44.303 60.169c-.456.263-.913.295-1.261.031l-3.315-2.505c-.696-.527-.696-2.033 0-3.364.697-1.33 1.826-1.982 2.523-1.456l2.053 1.552 4.456-8.513c.696-1.33 1.825-1.982 2.522-1.456.697.527.697 2.032 0 3.363l-5.717 10.923c-.348.666-.805 1.161-1.261 1.425z" fill="url(#paint14_linear)"/><defs><linearGradient id="paint0_linear" x1="20.495" y1="27.228" x2="20.495" y2="92.926" gradientUnits="userSpaceOnUse"><stop stop-color="#C5BAEB"/><stop offset=".966" stop-color="#fff"/></linearGradient><linearGradient id="paint1_linear" x1="13.663" y1="15.331" x2="47.484" y2="-4.196" gradientUnits="userSpaceOnUse"><stop stop-color="#C5BAEB"/><stop offset=".966" stop-color="#fff"/></linearGradient><linearGradient id="paint2_linear" x1="21.038" y1="83.6" x2="21.038" y2="-16.425" gradientUnits="userSpaceOnUse"><stop stop-color="#C5BAEB"/><stop offset=".966" stop-color="#fff"/></linearGradient><linearGradient id="paint3_linear" x1="10.275" y1="32.915" x2="13.684" y2="38.819" gradientUnits="userSpaceOnUse"><stop stop-color="#7662BD"/><stop offset="1" stop-color="#7662BD" stop-opacity="0"/></linearGradient><linearGradient id="paint4_linear" x1="11.748" y1="29.758" x2="7.534" y2="27.324" gradientUnits="userSpaceOnUse"><stop stop-color="#C5BAEB"/><stop offset=".213" stop-color="#CBC1ED"/><stop offset=".527" stop-color="#DCD5F3"/><stop offset=".9" stop-color="#F7F5FC"/><stop offset="1" stop-color="#fff"/></linearGradient><linearGradient id="paint5_linear" x1="31.519" y1="65.129" x2="31.519" y2="27.91" gradientUnits="userSpaceOnUse"><stop stop-color="#7662BD"/><stop offset="1" stop-color="#7662BD" stop-opacity="0"/></linearGradient><linearGradient id="paint6_linear" x1="34.633" y1="52.346" x2="47.265" y2="30.468" gradientUnits="userSpaceOnUse"><stop offset=".032" stop-color="#A996EB"/><stop offset=".065" stop-color="#B3A3ED"/><stop offset=".141" stop-color="#C7BBF0"/><stop offset=".229" stop-color="#D6CEF3"/><stop offset=".331" stop-color="#E1DBF5"/><stop offset=".461" stop-color="#E7E3F6"/><stop offset=".719" stop-color="#E9E5F6"/><stop offset=".763" stop-color="#DFDAF0"/><stop offset=".825" stop-color="#D9D3EC"/><stop offset="1" stop-color="#D7D1EB"/></linearGradient><linearGradient id="paint7_linear" x1="32.465" y1="53.88" x2="32.465" y2="61.815" gradientUnits="userSpaceOnUse"><stop offset=".032" stop-color="#7662BD"/><stop offset="1" stop-color="#7662BD" stop-opacity="0"/></linearGradient><linearGradient id="paint8_linear" x1="43.163" y1="71.795" x2="43.163" y2="43.019" gradientUnits="userSpaceOnUse"><stop stop-color="#DFDAEF"/><stop offset="1" stop-color="#fff"/></linearGradient><linearGradient id="paint9_linear" x1="43.162" y1="73.295" x2="43.162" y2="44.846" gradientUnits="userSpaceOnUse"><stop stop-color="#2F878A"/><stop offset="1" stop-color="#06DAAE"/></linearGradient><linearGradient id="paint10_linear" x1="40.517" y1="52.421" x2="40.517" y2="63.039" gradientUnits="userSpaceOnUse"><stop offset=".032" stop-color="#1A4C4E"/><stop offset="1" stop-color="#1A4C4E" stop-opacity="0"/></linearGradient><linearGradient id="paint11_linear" x1="40.092" y1="57.465" x2="42" y2="54.186" gradientUnits="userSpaceOnUse"><stop offset=".032" stop-color="#A996EB"/><stop offset=".682" stop-color="#D7CFF3"/><stop offset="1" stop-color="#E9E5F6"/></linearGradient><linearGradient id="paint12_linear" x1="41.727" y1="59.329" x2="39.041" y2="57.116" gradientUnits="userSpaceOnUse"><stop offset=".032" stop-color="#7662BD"/><stop offset="1" stop-color="#7662BD" stop-opacity="0"/></linearGradient><linearGradient id="paint13_linear" x1="43.818" y1="53.44" x2="47.852" y2="46.508" gradientUnits="userSpaceOnUse"><stop offset=".032" stop-color="#A996EB"/><stop offset=".682" stop-color="#D7CFF3"/><stop offset="1" stop-color="#E9E5F6"/></linearGradient><linearGradient id="paint14_linear" x1="45.504" y1="59.984" x2="45.504" y2="47.845" gradientUnits="userSpaceOnUse"><stop stop-color="#DFDAEF"/><stop offset="1" stop-color="#fff"/></linearGradient></defs></svg>