<svg width="72" height="80" fill="none" xmlns="http://www.w3.org/2000/svg"><path d="M.83 52.786v11.353h.006C.72 68.05 3.024 71.8 7.848 74.586c10.394 6.002 28.552 5.249 40.554-1.681 6.385-3.686 9.742-8.378 9.922-12.866h.008v-12.06L.83 52.787z" fill="url(#paint0_linear)"/><path d="M51.314 38.16c-10.395-6.002-28.552-5.25-40.555 1.68S-2.547 57.254 7.848 63.256c10.394 6.001 28.552 5.248 40.555-1.681 12.003-6.93 13.306-17.413 2.911-23.414z" fill="url(#paint1_linear)"/><path d="M6.182 38.89v13.527h.004c-.093 3.184 1.781 6.236 5.707 8.502 8.46 4.885 23.237 4.272 33.005-1.368 5.197-3 7.929-6.818 8.075-10.47l.007-.001V34.978L6.181 38.89z" fill="url(#paint2_linear)"/><path d="M.83 35.731v11.354h.006c-.115 3.912 2.188 7.662 7.012 10.447C18.242 63.534 36.4 62.78 48.402 55.85c6.385-3.686 9.742-8.378 9.922-12.866h.008v-12.06L.83 35.731z" fill="url(#paint3_linear)"/><path d="M51.314 21.106c-10.395-6.002-28.552-5.25-40.555 1.68S-2.547 40.2 7.848 46.202C18.242 52.203 36.4 51.45 48.403 44.52s13.306-17.413 2.911-23.414z" fill="url(#paint4_linear)"/><path d="M6.182 21.835v13.528h.004c-.093 3.184 1.781 6.236 5.707 8.502 8.46 4.885 23.237 4.272 33.005-1.368 5.197-3 7.929-6.818 8.075-10.47h.007V17.923L6.181 21.835z" fill="url(#paint5_linear)"/><path d="M.83 18.677v11.354h.006c-.115 3.912 2.188 7.662 7.012 10.447 10.394 6.001 28.552 5.249 40.554-1.681 6.385-3.686 9.742-8.378 9.922-12.866h.008V13.87L.83 18.678z" fill="url(#paint6_linear)"/><path d="M51.314 4.052C40.92-1.95 22.762-1.198 10.76 5.732S-2.547 23.147 7.848 29.148c10.394 6.002 28.552 5.249 40.555-1.681s13.306-17.413 2.911-23.414z" fill="url(#paint7_linear)"/><path d="M58.324 60.04l.008-.001v-12.06l-.007.001a9.33 9.33 0 00-.431-2.473c.253-.843.397-1.686.43-2.521l.008-.001v-7.4L49.6 36.612a2.397 2.397 0 00-.909.321 4.202 4.202 0 00-.908.728l-11.21 11.625c-.727.755-1.216 1.95-1.216 2.977v8.418c0 6.11 2.012 10.653 5.383 12.599l.033.02.015.009 2.944 1.7c.049.035.1.067.15.102a37.742 37.742 0 004.52-2.206c6.386-3.686 9.743-8.378 9.922-12.866z" fill="url(#paint8_linear)"/><path d="M70.563 40.785l-3.521-2.033c-.3-.18-.492-.346-.827-.307l-11.209 1.318a2.396 2.396 0 00-.908.322 4.202 4.202 0 00-.909.727L41.98 52.438c-.728.754-1.216 1.95-1.216 2.977v8.418c0 6.11 2.01 10.653 5.382 12.599l.033.02.015.008 2.944 1.7 21.425-37.375z" fill="url(#paint9_linear)"/><path d="M51.267 70.445l-10.498-6.06c.118 5.832 2.108 10.16 5.377 12.047l.033.02.015.009 2.944 1.7 1.887-3.292.242-4.424z" fill="url(#paint10_linear)"/><path d="M69.956 40.662l-11.21 1.318c-.588.07-1.228.439-1.817 1.05L45.72 54.653c-.728.755-1.216 1.95-1.216 2.977v8.419c0 7.854 3.322 13.12 8.586 13.607l3.642.337c.696.064 1.516-.409 2.211-1.276l3.643-4.544c5.264-6.565 8.586-15.666 8.586-23.52v-8.42c0-1.026-.489-1.657-1.216-1.572z" fill="url(#paint11_linear)"/><path d="M57.837 44.754a.813.813 0 01.308-.11l11.186-1.314v8.385c0 3.4-.707 7.133-2.045 10.799-1.338 3.666-3.25 7.105-5.527 9.946l-3.643 4.543a1.04 1.04 0 01-.28.25.48.48 0 01-.28.073l-3.642-.337c-2.278-.21-4.189-1.443-5.527-3.564-1.338-2.12-2.045-5.038-2.045-8.437v-8.385L57.528 45c.1-.103.203-.186.309-.247z" fill="url(#paint12_linear)"/><path d="M57.035 63.203l-5.633.23v2.655l.005.003c-.028.734.162 1.354.573 1.664l3.661 2.769c.385.29.89.256 1.394-.035.504-.291 1.008-.84 1.393-1.574l-1.393-5.712z" fill="url(#paint13_linear)"/><path d="M64.744 50.334c-.77-.543-2.017.139-2.786 1.61l-4.785 9.14-.556-.383-1.944-1.13v.004c-.775-.462-1.954.255-2.694 1.668-.769 1.47-.769 3.134 0 3.715l3.662 2.769a.985.985 0 00.229.126l-.002.003 1.953 1.137 8.74-17.604s-1.811-1.05-1.817-1.055z" fill="url(#paint14_linear)"/><path d="M54.042 66.15l-2.065-1.194.002.003 3.662 2.768a.987.987 0 00.228.126l-.001.003 1.953 1.138.095-.192-3.873-2.653z" fill="url(#paint15_linear)"/><path d="M64.745 50.334c-.77-.543-2.017.139-2.787 1.61l-4.784 9.14 1.925 1.456 7.463-11.151s-1.812-1.05-1.817-1.055z" fill="url(#paint16_linear)"/><path d="M59.1 68.883c-.505.29-1.01.325-1.394.035l-3.662-2.769c-.77-.581-.77-2.245 0-3.715.77-1.47 2.017-2.191 2.787-1.61l2.268 1.716 4.923-9.406c.77-1.47 2.017-2.19 2.787-1.608.77.581.77 2.245 0 3.715L60.493 67.31c-.385.735-.89 1.282-1.394 1.574z" fill="url(#paint17_linear)"/><defs><linearGradient id="paint0_linear" x1="8.284" y1="63.309" x2="38.343" y2="63.309" gradientUnits="userSpaceOnUse"><stop stop-color="#C5BAEB"/><stop offset=".349" stop-color="#D7D1EB"/><stop offset="1" stop-color="#F2EFFA"/></linearGradient><linearGradient id="paint1_linear" x1="13.532" y1="41.441" x2="49.129" y2="61.993" gradientUnits="userSpaceOnUse"><stop stop-color="#D7D1EB"/><stop offset="1" stop-color="#DFDAEF"/></linearGradient><linearGradient id="paint2_linear" x1="6.182" y1="49.597" x2="52.98" y2="49.597" gradientUnits="userSpaceOnUse"><stop stop-color="#0072BC"/><stop offset="1" stop-color="#59ACF9"/></linearGradient><linearGradient id="paint3_linear" x1="8.284" y1="46.255" x2="38.343" y2="46.255" gradientUnits="userSpaceOnUse"><stop stop-color="#C5BAEB"/><stop offset=".349" stop-color="#D7D1EB"/><stop offset="1" stop-color="#F2EFFA"/></linearGradient><linearGradient id="paint4_linear" x1="9.023" y1="21.784" x2="54.223" y2="47.88" gradientUnits="userSpaceOnUse"><stop stop-color="#D7D1EB"/><stop offset="1" stop-color="#DFDAEF"/></linearGradient><linearGradient id="paint5_linear" x1="6.182" y1="32.544" x2="52.98" y2="32.544" gradientUnits="userSpaceOnUse"><stop stop-color="#0072BC"/><stop offset="1" stop-color="#59ACF9"/></linearGradient><linearGradient id="paint6_linear" x1="8.284" y1="29.201" x2="38.343" y2="29.201" gradientUnits="userSpaceOnUse"><stop stop-color="#C5BAEB"/><stop offset=".349" stop-color="#D7D1EB"/><stop offset="1" stop-color="#F2EFFA"/></linearGradient><linearGradient id="paint7_linear" x1="-2.261" y1="-1.785" x2="49.101" y2="27.869" gradientUnits="userSpaceOnUse"><stop stop-color="#DFDAEF"/><stop offset="1" stop-color="#fff"/></linearGradient><linearGradient id="paint8_linear" x1="46.845" y1="83.81" x2="46.845" y2="36.103" gradientUnits="userSpaceOnUse"><stop stop-color="#7662BD"/><stop offset="1" stop-color="#7662BD" stop-opacity="0"/></linearGradient><linearGradient id="paint9_linear" x1="48.414" y1="60.24" x2="62.369" y2="36.068" gradientUnits="userSpaceOnUse"><stop offset=".032" stop-color="#A996EB"/><stop offset=".065" stop-color="#B3A3ED"/><stop offset=".141" stop-color="#C7BBF0"/><stop offset=".229" stop-color="#D6CEF3"/><stop offset=".331" stop-color="#E1DBF5"/><stop offset=".461" stop-color="#E7E3F6"/><stop offset=".719" stop-color="#E9E5F6"/><stop offset=".763" stop-color="#DFDAF0"/><stop offset=".825" stop-color="#D9D3EC"/><stop offset="1" stop-color="#D7D1EB"/></linearGradient><linearGradient id="paint10_linear" x1="46.018" y1="61.934" x2="46.018" y2="70.701" gradientUnits="userSpaceOnUse"><stop offset=".032" stop-color="#7662BD"/><stop offset="1" stop-color="#7662BD" stop-opacity="0"/></linearGradient><linearGradient id="paint11_linear" x1="57.838" y1="81.728" x2="57.838" y2="49.934" gradientUnits="userSpaceOnUse"><stop stop-color="#DFDAEF"/><stop offset="1" stop-color="#fff"/></linearGradient><linearGradient id="paint12_linear" x1="57.837" y1="83.386" x2="57.837" y2="51.953" gradientUnits="userSpaceOnUse"><stop stop-color="#2F878A"/><stop offset="1" stop-color="#06DAAE"/></linearGradient><linearGradient id="paint13_linear" x1="54.915" y1="60.322" x2="54.915" y2="72.054" gradientUnits="userSpaceOnUse"><stop offset=".032" stop-color="#1A4C4E"/><stop offset="1" stop-color="#1A4C4E" stop-opacity="0"/></linearGradient><linearGradient id="paint14_linear" x1="54.445" y1="65.895" x2="56.554" y2="62.273" gradientUnits="userSpaceOnUse"><stop offset=".032" stop-color="#A996EB"/><stop offset=".682" stop-color="#D7CFF3"/><stop offset="1" stop-color="#E9E5F6"/></linearGradient><linearGradient id="paint15_linear" x1="56.252" y1="67.954" x2="53.284" y2="65.51" gradientUnits="userSpaceOnUse"><stop offset=".032" stop-color="#7662BD"/><stop offset="1" stop-color="#7662BD" stop-opacity="0"/></linearGradient><linearGradient id="paint16_linear" x1="58.563" y1="61.448" x2="63.02" y2="53.79" gradientUnits="userSpaceOnUse"><stop offset=".032" stop-color="#A996EB"/><stop offset=".682" stop-color="#D7CFF3"/><stop offset="1" stop-color="#E9E5F6"/></linearGradient><linearGradient id="paint17_linear" x1="60.426" y1="68.679" x2="60.426" y2="55.267" gradientUnits="userSpaceOnUse"><stop stop-color="#DFDAEF"/><stop offset="1" stop-color="#fff"/></linearGradient></defs></svg>