<svg width="60" height="80" fill="none" xmlns="http://www.w3.org/2000/svg"><path d="M58.226 15.403l-7.156-4.131-1.63-6.958L42.27.178V.18c-.449-.281-1.05-.241-1.69.17l-7.14 4.59-5.572-2.758c-.86-.427-2.087.282-2.947 1.701l-5.572 9.192-7.141 3.655c-1.103.565-2.095 2.099-2.385 3.687L7.95 30.7l-5.983 8.673c-.924 1.34-1.303 3.114-.911 4.264l2.54 7.444-2.54 10.378c-.37 1.51-.054 2.783.756 3.153h-.001l6.598 3.809 1.415 6.132c.131.57.41.96.776 1.15h-.003l7.193 4.152 40.436-64.452z" fill="url(#paint0_linear)"/><path d="M17.79 79.855l-2.627-9.258-6.755-2.176 1.415 6.132c.132.57.41.96.777 1.15l-.003.001 7.192 4.151z" fill="url(#paint1_linear)"/><path d="M3.596 51.081L1.056 61.46c-.37 1.51-.054 2.783.756 3.153h-.001l6.598 3.809 2.4-13.178-7.213-4.162z" fill="url(#paint2_linear)"/><path d="M49.928 6.395l-.487-2.08L42.27.177V.18c-.45-.281-1.05-.241-1.69.17l-7.142 4.59 7.213 4.162 9.276-2.708z" fill="url(#paint3_linear)"/><path d="M24.921 3.885l-5.571 9.19 7.212 4.163 14.09-8.135L33.44 4.94l-5.572-2.758c-.86-.426-2.086.282-2.947 1.702z" fill="url(#paint4_linear)"/><path d="M24.921 3.885l-5.571 9.19 7.212 4.163 14.09-8.135L33.44 4.94l-5.572-2.758c-.86-.426-2.086.282-2.947 1.702z" fill="url(#paint5_linear)"/><path d="M26.563 17.238l-7.213-4.162-7.14 3.655c-1.104.565-2.096 2.099-2.385 3.687L7.95 30.7l7.213 4.162 11.4-17.624z" fill="url(#paint6_linear)"/><path d="M26.563 17.238l-7.213-4.162-7.14 3.655c-1.104.565-2.096 2.099-2.385 3.687L7.95 30.7l7.213 4.162 11.4-17.624z" fill="url(#paint7_linear)"/><path d="M1.056 43.636l2.54 7.445 7.213 4.162 4.354-20.381L7.95 30.7l-5.983 8.673c-.924 1.34-1.303 3.113-.911 4.263z" fill="url(#paint8_linear)"/><path d="M1.056 43.636l2.54 7.445 7.213 4.162 4.354-20.381L7.95 30.7l-5.983 8.673c-.924 1.34-1.303 3.113-.911 4.263z" fill="url(#paint9_linear)"/><path d="M35.08 6.345l5.572 2.758 7.141-4.59c1.104-.71 2.096-.321 2.385.933l1.873 8.118 5.984 1.764c.924.273 1.303 1.609.91 3.212l-2.54 10.378 2.54 7.444c.393 1.15.014 2.924-.91 4.264l-5.983 8.673-1.874 10.282c-.29 1.588-1.281 3.121-2.384 3.686l-7.142 3.656-5.57 9.191c-.862 1.42-2.088 2.128-2.948 1.702l-5.572-2.758-7.141 4.59c-1.103.71-2.095.32-2.385-.933l-1.873-8.119-5.983-1.764c-.925-.272-1.303-1.608-.911-3.211l2.54-10.378-2.54-7.445c-.392-1.15-.014-2.924.91-4.263l5.984-8.673 1.873-10.282c.29-1.588 1.282-3.122 2.385-3.687l7.141-3.655 5.572-9.192c.86-1.42 2.086-2.128 2.947-1.701z" fill="url(#paint10_linear)"/><path d="M50.803 32.152c0-12.664-7.699-18.484-17.196-13-9.498 5.483-17.197 20.194-17.197 32.857s7.7 18.484 17.197 13c9.497-5.483 17.196-20.194 17.196-32.857z" fill="url(#paint11_linear)"/><path d="M31.547 48.315l-10.881.446v5.127l.01.007c-.054 1.417.311 2.615 1.105 3.215l7.075 5.348c.743.562 1.717.495 2.691-.068.975-.562 1.949-1.62 2.692-3.04l-2.692-11.035z" fill="url(#paint12_linear)"/><path d="M46.441 23.454c-1.486-1.05-3.897.268-5.384 3.109l-9.242 17.66-1.076-.741-3.755-2.183v.007c-1.496-.892-3.775.493-5.203 3.223-1.487 2.84-1.487 6.054 0 7.178l7.075 5.348c.138.105.287.181.44.243l-.002.006 3.772 2.198 16.886-34.01s-3.5-2.03-3.51-2.038z" fill="url(#paint13_linear)"/><path d="M25.769 54.007l-3.992-2.304c.002 0 .003.002.005.004l7.074 5.348c.14.105.288.18.442.242l-.003.007 3.772 2.197.184-.37-7.482-5.124z" fill="url(#paint14_linear)"/><path d="M46.44 23.454c-1.486-1.05-3.896.268-5.383 3.109l-9.243 17.659 3.72 2.811L49.95 25.491s-3.5-2.029-3.51-2.037z" fill="url(#paint15_linear)"/><path d="M35.534 59.288c-.974.562-1.949.63-2.692.067l-7.075-5.348c-1.486-1.124-1.486-4.338 0-7.178 1.487-2.84 3.898-4.233 5.384-3.109l4.383 3.313 9.51-18.17c1.487-2.84 3.897-4.232 5.383-3.108 1.487 1.124 1.487 4.337 0 7.178L38.225 56.247c-.743 1.42-1.717 2.478-2.691 3.04z" fill="url(#paint16_linear)"/><defs><linearGradient id="paint0_linear" x1="29.564" y1="121.279" x2="29.564" y2="-9.418" gradientUnits="userSpaceOnUse"><stop stop-color="#FFA538"/><stop offset="1" stop-color="#FCF3B3"/></linearGradient><linearGradient id="paint1_linear" x1="13.099" y1="69.4" x2="13.099" y2="80.963" gradientUnits="userSpaceOnUse"><stop stop-color="#FFA538"/><stop offset="1" stop-color="#FFA538" stop-opacity="0"/></linearGradient><linearGradient id="paint2_linear" x1="2.667" y1="65.527" x2="7.481" y2="57.19" gradientUnits="userSpaceOnUse"><stop stop-color="#FFA538"/><stop offset="1" stop-color="#FFA538" stop-opacity="0"/></linearGradient><linearGradient id="paint3_linear" x1="36.2" y1="15.166" x2="45.791" y2="-1.446" gradientUnits="userSpaceOnUse"><stop stop-color="#FFA538"/><stop offset="1" stop-color="#FFA538" stop-opacity="0"/></linearGradient><linearGradient id="paint4_linear" x1="24.419" y1="20.758" x2="34.12" y2="3.954" gradientUnits="userSpaceOnUse"><stop stop-color="#FFA538"/><stop offset="1" stop-color="#FFA538" stop-opacity="0"/></linearGradient><linearGradient id="paint5_linear" x1="27.778" y1="14.94" x2="37.48" y2="-1.864" gradientUnits="userSpaceOnUse"><stop stop-color="#FCF3B3" stop-opacity="0"/><stop offset=".47" stop-color="#FCF3B3" stop-opacity=".89"/><stop offset=".528" stop-color="#FCF3B3"/><stop offset=".597" stop-color="#FCF3B3" stop-opacity=".854"/><stop offset="1" stop-color="#FCF3B3" stop-opacity="0"/></linearGradient><linearGradient id="paint6_linear" x1="4.009" y1="43.043" x2="19.602" y2="16.035" gradientUnits="userSpaceOnUse"><stop stop-color="#FFA538"/><stop offset="1" stop-color="#FFA538" stop-opacity="0"/></linearGradient><linearGradient id="paint7_linear" x1="11.133" y1="30.705" x2="21.357" y2="12.996" gradientUnits="userSpaceOnUse"><stop stop-color="#FCF3B3" stop-opacity="0"/><stop offset=".47" stop-color="#FCF3B3" stop-opacity=".89"/><stop offset=".528" stop-color="#FCF3B3"/><stop offset=".597" stop-color="#FCF3B3" stop-opacity=".854"/><stop offset="1" stop-color="#FCF3B3" stop-opacity="0"/></linearGradient><linearGradient id="paint8_linear" x1="4.453" y1="50.64" x2="12.477" y2="36.742" gradientUnits="userSpaceOnUse"><stop stop-color="#FFA538"/><stop offset="1" stop-color="#FFA538" stop-opacity="0"/></linearGradient><linearGradient id="paint9_linear" x1="3.024" y1="53.116" x2="11.048" y2="39.217" gradientUnits="userSpaceOnUse"><stop stop-color="#FCF3B3" stop-opacity="0"/><stop offset=".47" stop-color="#FCF3B3" stop-opacity=".89"/><stop offset=".528" stop-color="#FCF3B3"/><stop offset=".597" stop-color="#FCF3B3" stop-opacity=".854"/><stop offset="1" stop-color="#FCF3B3" stop-opacity="0"/></linearGradient><linearGradient id="paint10_linear" x1="33.607" y1="85.019" x2=".696" y2="28.017" gradientUnits="userSpaceOnUse"><stop stop-color="#FFA538"/><stop offset=".206" stop-color="#FBC33D"/><stop offset=".396" stop-color="#F8D840"/><stop offset=".521" stop-color="#F7E041"/><stop offset="1" stop-color="#FAEC8D"/></linearGradient><linearGradient id="paint11_linear" x1="33.607" y1="77.408" x2="33.607" y2="-18.019" gradientUnits="userSpaceOnUse"><stop stop-color="#FFA538"/><stop offset="1" stop-color="#F7E041"/></linearGradient><linearGradient id="paint12_linear" x1="27.453" y1="42.75" x2="27.453" y2="65.414" gradientUnits="userSpaceOnUse"><stop offset=".032" stop-color="#8B451C"/><stop offset="1" stop-color="#8B451C" stop-opacity="0"/></linearGradient><linearGradient id="paint13_linear" x1="26.544" y1="53.516" x2="30.618" y2="46.518" gradientUnits="userSpaceOnUse"><stop offset=".032" stop-color="#A996EB"/><stop offset=".682" stop-color="#D7CFF3"/><stop offset="1" stop-color="#E9E5F6"/></linearGradient><linearGradient id="paint14_linear" x1="30.036" y1="57.494" x2="24.303" y2="52.771" gradientUnits="userSpaceOnUse"><stop offset=".032" stop-color="#7662BD"/><stop offset="1" stop-color="#7662BD" stop-opacity="0"/></linearGradient><linearGradient id="paint15_linear" x1="34.498" y1="44.925" x2="43.11" y2="30.13" gradientUnits="userSpaceOnUse"><stop offset=".032" stop-color="#A996EB"/><stop offset=".682" stop-color="#D7CFF3"/><stop offset="1" stop-color="#E9E5F6"/></linearGradient><linearGradient id="paint16_linear" x1="38.097" y1="58.894" x2="38.097" y2="32.983" gradientUnits="userSpaceOnUse"><stop stop-color="#DFDAEF"/><stop offset="1" stop-color="#fff"/></linearGradient></defs></svg>