<svg width="76" height="80" fill="none" xmlns="http://www.w3.org/2000/svg"><path d="M31.422 27.494C14.54 27.494.854 41.18.854 58.063v6.811h.008C.86 68.927 3.305 72.8 8.315 75.691c11.052 6.381 30.357 5.581 43.119-1.787 6.98-4.03 10.548-9.189 10.548-14.081l.01-.001v-1.76c-.001-16.883-13.687-30.569-30.57-30.569z" fill="url(#paint0_linear)"/><path d="M61.983 59.824l.008-.001v-1.76c0-10.002-4.804-18.881-12.23-24.458L39.515 44.232c-.75.778-1.252 2.01-1.252 3.066v8.67c0 6.294 2.071 10.972 5.543 12.975v.001l.034.02.016.01 3.032 1.75a7.992 7.992 0 004.068 1.541l2.687.249c5.522-3.788 8.34-8.344 8.34-12.69z" fill="url(#paint1_linear)"/><path d="M74.52 35.478l-3.626-2.094c-.308-.186-.507-.356-.852-.316l-11.544 1.358a2.47 2.47 0 00-.935.33 4.333 4.333 0 00-.936.75L45.083 47.478c-.75.778-1.253 2.01-1.253 3.067v8.67c0 6.293 2.072 10.97 5.544 12.975l.034.02.015.01 3.032 1.75L74.52 35.478z" fill="url(#paint2_linear)"/><path d="M54.647 66.025l-10.811-6.242c.121 6.006 2.17 10.464 5.538 12.407l.033.02.016.01 3.032 1.75 1.943-3.39.25-4.555z" fill="url(#paint3_linear)"/><path d="M73.894 35.351L62.35 36.71c-.606.07-1.265.451-1.872 1.08L48.934 49.762c-.75.777-1.252 2.008-1.252 3.066v8.67c0 8.09 3.421 13.512 8.842 14.014l3.752.347c.716.066 1.56-.421 2.277-1.315l3.751-4.68c5.421-6.76 8.843-16.134 8.843-24.223v-8.67c0-1.058-.504-1.708-1.253-1.62z" fill="url(#paint4_linear)"/><path d="M61.413 39.565a.838.838 0 01.318-.112l11.52-1.355v8.637c0 3.5-.728 7.346-2.106 11.121-1.378 3.775-3.347 7.317-5.693 10.243l-3.751 4.68c-.09.11-.189.2-.288.257-.1.058-.2.084-.288.075l-3.752-.347c-2.346-.217-4.314-1.486-5.692-3.67-1.378-2.184-2.107-5.189-2.107-8.69v-8.636l11.52-11.948c.103-.106.21-.192.319-.255z" fill="url(#paint5_linear)"/><path d="M60.588 58.566l-5.8.237v2.734l.004.003c-.029.755.166 1.394.59 1.714l3.77 2.851c.397.3.916.264 1.436-.036.52-.3 1.039-.864 1.435-1.621l-1.435-5.882z" fill="url(#paint6_linear)"/><path d="M68.528 45.313c-.793-.56-2.077.142-2.87 1.657l-4.927 9.414-.574-.395-2.002-1.164v.004c-.797-.475-2.012.263-2.773 1.718-.793 1.514-.793 3.228 0 3.827l3.77 2.85a.996.996 0 00.236.13l-.002.004 2.012 1.171 9.001-18.13-1.871-1.086z" fill="url(#paint7_linear)"/><path d="M57.507 61.6l-2.128-1.228.002.002 3.772 2.85a.971.971 0 00.235.13l-.002.004 2.012 1.171.098-.198-3.99-2.731z" fill="url(#paint8_linear)"/><path d="M68.528 45.313c-.793-.56-2.078.142-2.87 1.657l-4.928 9.414 1.983 1.498L70.4 46.398l-1.871-1.085z" fill="url(#paint9_linear)"/><path d="M62.713 64.415c-.52.3-1.039.336-1.435.036L57.507 61.6c-.793-.6-.793-2.312 0-3.827.792-1.514 2.077-2.256 2.87-1.657l2.336 1.766 5.07-9.686c.792-1.515 2.077-2.256 2.87-1.657.792.599.792 2.312 0 3.826l-6.505 12.429c-.396.757-.916 1.321-1.435 1.621z" fill="url(#paint10_linear)"/><path d="M7.418 39.134h24.004l-3.37-11.454c-8.351.916-15.69 5.194-20.634 11.454z" fill="url(#paint11_linear)"/><path d="M31.422 39.13c10.805 0 19.563-8.759 19.563-19.563C50.985 8.763 42.227.004 31.422.004 20.618.004 11.86 8.763 11.86 19.567c0 10.804 8.759 19.563 19.563 19.563z" fill="url(#paint12_radial)"/><defs><linearGradient id="paint0_linear" x1=".854" y1="53.747" x2="61.991" y2="53.747" gradientUnits="userSpaceOnUse"><stop stop-color="#C5BAEB"/><stop offset=".349" stop-color="#D7D1EB"/><stop offset="1" stop-color="#F2EFFA"/></linearGradient><linearGradient id="paint1_linear" x1="50.126" y1="86.393" x2="50.126" y2="31.34" gradientUnits="userSpaceOnUse"><stop offset=".032" stop-color="#7662BD"/><stop offset="1" stop-color="#7662BD" stop-opacity="0"/></linearGradient><linearGradient id="paint2_linear" x1="51.709" y1="55.514" x2="66.082" y2="30.62" gradientUnits="userSpaceOnUse"><stop offset=".032" stop-color="#A996EB"/><stop offset=".065" stop-color="#B3A3ED"/><stop offset=".141" stop-color="#C7BBF0"/><stop offset=".229" stop-color="#D6CEF3"/><stop offset=".331" stop-color="#E1DBF5"/><stop offset=".461" stop-color="#E7E3F6"/><stop offset=".719" stop-color="#E9E5F6"/><stop offset=".763" stop-color="#DFDAF0"/><stop offset=".825" stop-color="#D9D3EC"/><stop offset="1" stop-color="#D7D1EB"/></linearGradient><linearGradient id="paint3_linear" x1="49.242" y1="57.259" x2="49.242" y2="66.288" gradientUnits="userSpaceOnUse"><stop offset=".032" stop-color="#7662BD"/><stop offset="1" stop-color="#7662BD" stop-opacity="0"/></linearGradient><linearGradient id="paint4_linear" x1="61.414" y1="77.644" x2="61.414" y2="44.901" gradientUnits="userSpaceOnUse"><stop stop-color="#DFDAEF"/><stop offset="1" stop-color="#fff"/></linearGradient><linearGradient id="paint5_linear" x1="61.413" y1="79.352" x2="61.413" y2="46.98" gradientUnits="userSpaceOnUse"><stop stop-color="#2F878A"/><stop offset="1" stop-color="#06DAAE"/></linearGradient><linearGradient id="paint6_linear" x1="58.405" y1="55.599" x2="58.405" y2="67.681" gradientUnits="userSpaceOnUse"><stop offset=".032" stop-color="#1A4C4E"/><stop offset="1" stop-color="#1A4C4E" stop-opacity="0"/></linearGradient><linearGradient id="paint7_linear" x1="57.921" y1="61.338" x2="60.092" y2="57.608" gradientUnits="userSpaceOnUse"><stop offset=".032" stop-color="#A996EB"/><stop offset=".682" stop-color="#D7CFF3"/><stop offset="1" stop-color="#E9E5F6"/></linearGradient><linearGradient id="paint8_linear" x1="59.782" y1="63.459" x2="56.725" y2="60.941" gradientUnits="userSpaceOnUse"><stop offset=".032" stop-color="#7662BD"/><stop offset="1" stop-color="#7662BD" stop-opacity="0"/></linearGradient><linearGradient id="paint9_linear" x1="62.161" y1="56.758" x2="66.752" y2="48.871" gradientUnits="userSpaceOnUse"><stop offset=".032" stop-color="#A996EB"/><stop offset=".682" stop-color="#D7CFF3"/><stop offset="1" stop-color="#E9E5F6"/></linearGradient><linearGradient id="paint10_linear" x1="64.079" y1="64.205" x2="64.079" y2="50.392" gradientUnits="userSpaceOnUse"><stop stop-color="#DFDAEF"/><stop offset="1" stop-color="#fff"/></linearGradient><linearGradient id="paint11_linear" x1="32.364" y1="33.407" x2="8.708" y2="33.407" gradientUnits="userSpaceOnUse"><stop offset=".032" stop-color="#7662BD"/><stop offset="1" stop-color="#7662BD" stop-opacity="0"/></linearGradient><radialGradient id="paint12_radial" cx="0" cy="0" r="1" gradientUnits="userSpaceOnUse" gradientTransform="translate(35.654 12.526) scale(27.7797)"><stop stop-color="#E7E3F3"/><stop offset=".391" stop-color="#DCD6F0"/><stop offset="1" stop-color="#C5BAEB"/></radialGradient></defs></svg>