<svg width="80" height="68" fill="none" xmlns="http://www.w3.org/2000/svg"><path d="M58.807 45.867c9.163 0 16.591-7.428 16.591-16.59 0-9.163-7.428-16.591-16.59-16.591-9.163 0-16.591 7.428-16.591 16.59 0 9.163 7.428 16.591 16.59 16.591z" fill="url(#paint0_linear)"/><path d="M58.458 12.695c-9.001.187-16.241 7.536-16.241 16.581 0 9.163 7.428 16.591 16.59 16.591 3.258 0 6.294-.943 8.858-2.565a29.914 29.914 0 001.093-8.032c0-9.014-3.99-17.095-10.3-22.575z" fill="url(#paint1_linear)"/><path d="M38.868 60.729c16.508 0 29.89-13.382 29.89-29.89 0-16.507-13.382-29.89-29.89-29.89-16.508 0-29.89 13.383-29.89 29.89 0 16.508 13.382 29.89 29.89 29.89z" fill="url(#paint2_linear)"/><path d="M20.967 29.547a20.864 20.864 0 00-11.89 3.7C10.302 48.63 23.171 60.73 38.868 60.73c.137 0 .274-.004.41-.005a20.865 20.865 0 002.655-10.21c0-11.58-9.387-20.967-20.967-20.967z" fill="url(#paint3_linear)"/><path d="M20.967 67.05c11.58 0 20.967-9.387 20.967-20.966 0-11.58-9.387-20.967-20.967-20.967C9.387 25.117 0 34.504 0 46.083 0 57.663 9.387 67.05 20.967 67.05z" fill="url(#paint4_linear)"/><path d="M74.712 31.111l-1.614-.931-.943-.546V24.41c0-2.38-1.23-4.512-3.292-5.702a6.516 6.516 0 00-6.583 0 15.968 15.968 0 00-7.962 13.79v3.914c-.609.452-1.2.914-1.767 1.386l-.882.734-.49.407a1.131 1.131 0 00-.095.089.855.855 0 00-.166.246.697.697 0 00-.062.254l.002.058h-.002v16.662h.001c.001.343.254.702.735.98l.625.36a30.012 30.012 0 0013.26-13.12l.111-.05.122-.055a16.635 16.635 0 009.002-10.354V31.11zm-6.336-2.131l-1.807.724a65.833 65.833 0 00-4.251 1.886l-.157.077c-.343.17-.683.34-1.02.515l-.214.11a55.376 55.376 0 00-1.142.613c-.575.318-1.138.643-1.688.975v-1.382c0-4.325 2.326-8.355 6.072-10.518.085-.049.172-.09.261-.129a2.809 2.809 0 012.81.307 2.92 2.92 0 011.136 2.33v4.492z" fill="url(#paint5_linear)"/><path d="M80 34.66l-24.762 7.439V58.76h.002c.001.343.253.702.735.98l1.782 1.028 1.782 1.03c.794.458 1.97.559 2.772.237l1.976-.791c5.483-2.197 10.213-4.928 14.018-8.094l1.371-1.14c.218-.181.323-.396.323-.618H80V34.66z" fill="url(#paint6_linear)"/><path d="M70.952 32.217l1.975-.792c.802-.321 1.978-.22 2.772.238l1.782 1.03 1.783 1.028c.794.459.969 1.138.412 1.6l-1.37 1.141c-3.807 3.166-8.536 5.896-14.02 8.093l-1.975.792c-.802.321-1.978.22-2.772-.238l-1.782-1.029-1.782-1.03c-.794-.457-.97-1.137-.413-1.6l1.371-1.14c3.806-3.166 8.535-5.896 14.019-8.093z" fill="url(#paint7_linear)"/><path d="M55.562 41.45c-.556.463-.381 1.143.413 1.6l.833.482h3.966v-2.488h-4.722l-.49.407z" fill="url(#paint8_linear)"/><path d="M64.168 35.418h10.569v-2.489h-5.489a59.058 59.058 0 00-5.08 2.489z" fill="url(#paint9_linear)"/><path d="M76.538 26.921c0-2.38-1.23-4.511-3.292-5.701a6.516 6.516 0 00-6.583 0 15.968 15.968 0 00-7.962 13.79v7.282h.004c.002.301.221.618.65.866.788.455 1.98.504 2.663.11.312-.18.462-.423.458-.676h.004V35.01a12.18 12.18 0 016.072-10.518 2.776 2.776 0 012.805 0 2.776 2.776 0 011.402 2.43v7.267h.004c.009.297.227.608.65.852.788.455 1.98.504 2.662.11.296-.17.447-.397.46-.635h.003v-7.595z" fill="url(#paint10_linear)"/><path d="M74.26 34.199v-6.61c0-2.836-3.072-4.61-5.53-3.191a2.77 2.77 0 012.557.055c.924.5 1.472 1.496 1.472 2.547v7.19h.004c.009.296.227.607.65.851.788.455 1.98.505 2.662.11a.946.946 0 00.396-.396c-1.46.19-2.212-.556-2.212-.556z" fill="url(#paint11_linear)"/><defs><linearGradient id="paint0_linear" x1="88.528" y1="79.216" x2="44.773" y2="5.695" gradientUnits="userSpaceOnUse"><stop stop-color="#A996EB"/><stop offset=".089" stop-color="#B09FEC"/><stop offset=".704" stop-color="#E0D9F6"/><stop offset="1" stop-color="#F2EFFA"/></linearGradient><linearGradient id="paint1_linear" x1="49.415" y1="59.519" x2="56.261" y2="29.654" gradientUnits="userSpaceOnUse"><stop offset=".032" stop-color="#7662BD"/><stop offset="1" stop-color="#7662BD" stop-opacity="0"/></linearGradient><linearGradient id="paint2_linear" x1="73.118" y1="88.388" x2="29.362" y2="14.867" gradientUnits="userSpaceOnUse"><stop stop-color="#A996EB"/><stop offset=".089" stop-color="#B09FEC"/><stop offset=".704" stop-color="#E0D9F6"/><stop offset="1" stop-color="#F2EFFA"/></linearGradient><linearGradient id="paint3_linear" x1="16.579" y1="66.517" x2="26.991" y2="40.107" gradientUnits="userSpaceOnUse"><stop offset=".032" stop-color="#7662BD"/><stop offset="1" stop-color="#7662BD" stop-opacity="0"/></linearGradient><linearGradient id="paint4_linear" x1="56.562" y1="105.894" x2="12.807" y2="32.373" gradientUnits="userSpaceOnUse"><stop stop-color="#A996EB"/><stop offset=".089" stop-color="#B09FEC"/><stop offset=".704" stop-color="#E0D9F6"/><stop offset="1" stop-color="#F2EFFA"/></linearGradient><linearGradient id="paint5_linear" x1="62.784" y1="76.969" x2="62.784" y2="14.371" gradientUnits="userSpaceOnUse"><stop offset=".032" stop-color="#7662BD"/><stop offset="1" stop-color="#7662BD" stop-opacity="0"/></linearGradient><linearGradient id="paint6_linear" x1="60.028" y1="48.441" x2="64.128" y2="48.441" gradientUnits="userSpaceOnUse"><stop stop-color="#FFA538"/><stop offset="1" stop-color="#F7E041"/></linearGradient><linearGradient id="paint7_linear" x1="59.577" y1="33.743" x2="74.613" y2="42.424" gradientUnits="userSpaceOnUse"><stop stop-color="#FFA538"/><stop offset="1" stop-color="#FCF3B3"/></linearGradient><linearGradient id="paint8_linear" x1="61.105" y1="42.288" x2="53.616" y2="42.288" gradientUnits="userSpaceOnUse"><stop offset=".032" stop-color="#8B451C"/><stop offset="1" stop-color="#8B451C" stop-opacity="0"/></linearGradient><linearGradient id="paint9_linear" x1="76.047" y1="34.173" x2="66.46" y2="34.173" gradientUnits="userSpaceOnUse"><stop offset=".032" stop-color="#8B451C"/><stop offset="1" stop-color="#8B451C" stop-opacity="0"/></linearGradient><linearGradient id="paint10_linear" x1="67.62" y1="40.498" x2="67.62" y2="17.291" gradientUnits="userSpaceOnUse"><stop stop-color="#DFDAEF"/><stop offset="1" stop-color="#fff"/></linearGradient><linearGradient id="paint11_linear" x1="72.601" y1="19.875" x2="72.601" y2="31.394" gradientUnits="userSpaceOnUse"><stop offset=".032" stop-color="#7662BD"/><stop offset="1" stop-color="#7662BD" stop-opacity="0"/></linearGradient></defs></svg>