<svg width="100" height="114" fill="none" xmlns="http://www.w3.org/2000/svg"><path fill-rule="evenodd" clip-rule="evenodd" d="M89 113.25H26.636a10.087 10.087 0 01-10.088-10.088v-6.905l-4.575.605a7.917 7.917 0 01-1.687.113 9.45 9.45 0 01-9.338-9.412V26.437A9.375 9.375 0 0112.2 17.25l4.35.728v-7.14A10.087 10.087 0 0126.637.75h28.612c2.561.005 5.03.953 6.938 2.663l33.375 30a10.464 10.464 0 013.487 7.8v61.949A10.087 10.087 0 0189 113.25zM16.55 25.655l-5.663-1.018a1.986 1.986 0 00-1.725.338 1.875 1.875 0 00-.713 1.462v61.126a1.912 1.912 0 002.288 1.837l5.812-.772V25.655zM26.636 8.25a2.587 2.587 0 00-2.588 2.588v92.324a2.586 2.586 0 002.588 2.588h62.362a2.589 2.589 0 002.588-2.588V41.775H62.262a8.213 8.213 0 01-8.213-8.212V8.25H26.637zm34.912 4.476l23.973 21.549h-23.26a.713.713 0 01-.713-.712V12.726zM44.074 87h30a3.75 3.75 0 110 7.5h-30a3.75 3.75 0 010-7.5zm7.5-16.162h-7.5a3.75 3.75 0 000 7.5h7.5a3.75 3.75 0 100-7.5z" fill="url(#paint0_linear)" fill-opacity=".1"/><defs><linearGradient id="paint0_linear" x1=".949" y1="24.461" x2="22.516" y2="25.034" gradientUnits="userSpaceOnUse"><stop stop-color="#23B3F6"/><stop offset="1" stop-color="#17AAEE"/></linearGradient></defs></svg>