<svg width="120" height="120" fill="none" xmlns="http://www.w3.org/2000/svg"><path d="M12.334 29.784a1.9 1.9 0 01-.193.855c-.115.273-.323.509-.623.707-.301.198-.71.353-1.225.465-.502.111-1.14.167-1.913.167-1.576-.074-2.972-.397-4.19-.967a7.659 7.659 0 01-1.547-.93 6.66 6.66 0 01-1.354-1.357 7.244 7.244 0 01-.945-1.915C.114 26.066 0 25.21 0 24.244V6.767C0 5.64.236 4.654.71 3.811a6.306 6.306 0 011.976-2.1C3.531 1.14 4.512.712 5.63.427A14.92 14.92 0 019.283 0c.544 0 1.01.062 1.396.186.387.111.702.273.946.483.243.199.422.434.537.707.115.26.172.545.172.855 0 .62-.23 1.14-.688 1.562-.458.421-1.189.632-2.191.632-.63.025-1.182.149-1.655.372a2.986 2.986 0 00-.623.39 2.558 2.558 0 00-.516.576 2.907 2.907 0 00-.387.819 4.05 4.05 0 00-.128 1.078v16.918c0 .372.042.7.128.986.1.285.23.533.387.744.158.198.33.371.516.52.2.149.408.267.623.353.473.223 1.024.347 1.655.372.501 0 .93.062 1.289.186.372.112.673.273.902.483.244.199.416.434.516.707a2.1 2.1 0 01.172.855z" fill="url(#paint0_linear)" fill-opacity=".12"/><path d="M37.489 10.449c.243 0 .5.037.773.111.272.074.559.198.86.372.43.248.737.514.924.8.186.285.279.588.279.91 0 .41-.115.837-.344 1.283-.23.446-.516.874-.86 1.283l-3.824 4.536 3.825 4.5c.33.434.608.867.838 1.301.243.434.365.855.365 1.264 0 .323-.093.633-.28.93-.186.297-.494.57-.923.818-.573.322-1.103.484-1.59.484-.301 0-.588-.056-.86-.168a3.585 3.585 0 01-.752-.446 6.635 6.635 0 01-.688-.65 68.128 68.128 0 01-.666-.782l-2.578-3.123-2.665 3.123c-.2.285-.408.552-.623.8a4.629 4.629 0 01-.688.65 3.13 3.13 0 01-.73.447 2.318 2.318 0 01-.838.149c-.487 0-1.017-.162-1.59-.484-.43-.26-.738-.533-.924-.818a1.727 1.727 0 01-.28-.93c0-.409.115-.83.344-1.264.244-.434.53-.867.86-1.301l3.61-4.5-3.61-4.536c-.33-.434-.616-.861-.86-1.283-.229-.421-.344-.836-.344-1.245 0-.323.094-.626.28-.911.186-.298.494-.577.924-.837.573-.322 1.103-.483 1.59-.483.3 0 .58.055.838.167.258.1.501.242.73.428.244.185.473.402.688.65.215.236.423.49.623.762l2.665 3.124 2.578-3.123c.215-.273.43-.527.645-.763.215-.248.437-.465.666-.65a3.02 3.02 0 01.752-.428c.272-.112.559-.167.86-.167z" fill="url(#paint1_linear)" fill-opacity=".12"/><path d="M65.565 10.449c.244 0 .502.037.774.111.272.074.559.198.86.372.43.248.737.514.923.8.187.285.28.588.28.91 0 .41-.115.837-.344 1.283-.23.446-.516.874-.86 1.283l-3.824 4.536 3.824 4.5c.33.434.61.867.838 1.301.244.434.366.855.366 1.264 0 .323-.093.633-.28.93-.186.297-.494.57-.924.818-.573.322-1.103.484-1.59.484-.3 0-.587-.056-.86-.168a3.59 3.59 0 01-.751-.446 6.635 6.635 0 01-.688-.65 68.128 68.128 0 01-.666-.782l-2.578-3.123-2.665 3.123c-.2.285-.408.552-.623.8a4.624 4.624 0 01-.688.65 3.135 3.135 0 01-.73.447 2.322 2.322 0 01-.838.149c-.487 0-1.017-.162-1.59-.484-.43-.26-.738-.533-.924-.818a1.727 1.727 0 01-.28-.93c0-.409.115-.83.344-1.264.244-.434.53-.867.86-1.301l3.61-4.5-3.61-4.536c-.33-.434-.616-.861-.86-1.283-.23-.421-.344-.836-.344-1.245 0-.323.093-.626.28-.911.186-.298.494-.577.924-.837.573-.322 1.103-.483 1.59-.483.3 0 .58.055.838.167.258.1.501.242.73.428.244.185.473.402.688.65.215.236.422.49.623.762l2.665 3.124 2.578-3.123c.215-.273.43-.527.645-.763.215-.248.437-.465.666-.65a3.02 3.02 0 01.752-.428c.272-.112.558-.167.86-.167z" fill="url(#paint2_linear)" fill-opacity=".12"/><path d="M93.642 10.449c.244 0 .502.037.774.111.272.074.558.198.86.372.429.248.737.514.923.8.186.285.28.588.28.91 0 .41-.115.837-.344 1.283-.23.446-.516.874-.86 1.283l-3.825 4.536 3.825 4.5c.33.434.61.867.838 1.301.244.434.366.855.366 1.264 0 .323-.094.633-.28.93-.186.297-.494.57-.924.818-.573.322-1.103.484-1.59.484-.3 0-.587-.056-.86-.168a3.585 3.585 0 01-.751-.446 6.635 6.635 0 01-.688-.65 69.13 69.13 0 01-.666-.782l-2.579-3.123-2.664 3.123c-.2.285-.408.552-.623.8a4.629 4.629 0 01-.688.65 3.13 3.13 0 01-.73.447 2.324 2.324 0 01-.839.149c-.487 0-1.017-.162-1.59-.484-.43-.26-.737-.533-.924-.818a1.727 1.727 0 01-.279-.93c0-.409.115-.83.344-1.264.243-.434.53-.867.86-1.301l3.61-4.5-3.61-4.536c-.33-.434-.617-.861-.86-1.283-.23-.421-.344-.836-.344-1.245 0-.323.093-.626.28-.911.186-.298.494-.577.923-.837.573-.322 1.103-.483 1.59-.483.301 0 .58.055.839.167.257.1.5.242.73.428.244.185.473.402.688.65.215.236.422.49.623.762l2.664 3.124 2.579-3.123c.215-.273.43-.527.645-.763.214-.248.436-.465.666-.65a3.02 3.02 0 01.752-.428c.272-.112.558-.167.86-.167z" fill="url(#paint3_linear)" fill-opacity=".12"/><path d="M107.666 29.784c0-.31.05-.595.15-.855.115-.273.287-.508.516-.707.244-.21.544-.371.903-.483.372-.124.809-.186 1.31-.186a4.361 4.361 0 001.655-.372 3.073 3.073 0 001.139-.873c.157-.211.279-.46.365-.744.1-.285.15-.614.15-.986V7.66c0-.41-.05-.769-.15-1.078a2.555 2.555 0 00-.365-.819 2.316 2.316 0 00-.537-.576 3.34 3.34 0 00-.602-.39 4.36 4.36 0 00-1.655-.372c-.501 0-.938-.056-1.31-.167a2.668 2.668 0 01-.903-.465 1.944 1.944 0 01-.516-.688 2.52 2.52 0 01-.15-.874c0-.31.057-.595.172-.855.114-.273.294-.508.537-.707.244-.21.559-.372.946-.483.386-.124.852-.186 1.396-.186 1.304 0 2.514.143 3.632.428 1.131.285 2.113.712 2.944 1.282a6.024 6.024 0 011.976 2.101c.487.843.731 1.829.731 2.956v17.477c0 .966-.122 1.822-.365 2.565a6.885 6.885 0 01-.967 1.915 6.24 6.24 0 01-1.332 1.358 7.945 7.945 0 01-1.526.93c-1.232.57-2.629.892-4.19.966-.774 0-1.418-.056-1.934-.167-.502-.112-.903-.267-1.203-.465-.301-.198-.516-.434-.645-.707a2.093 2.093 0 01-.172-.855z" fill="url(#paint4_linear)" fill-opacity=".12"/><path d="M23.15 55.928c.243 0 .5.038.773.112.272.074.559.198.86.372.43.248.737.514.923.8.186.284.28.588.28.91 0 .41-.115.837-.344 1.283-.23.446-.516.874-.86 1.283l-3.825 4.536 3.825 4.5c.33.433.61.867.838 1.301.244.434.366.855.366 1.264 0 .323-.094.632-.28.93-.186.297-.494.57-.924.818-.573.322-1.103.483-1.59.483-.3 0-.587-.055-.86-.167a3.595 3.595 0 01-.751-.446 6.635 6.635 0 01-.688-.651 68.31 68.31 0 01-.666-.78l-2.579-3.124-2.664 3.123c-.2.285-.408.552-.623.8a4.619 4.619 0 01-.688.65c-.23.186-.473.335-.73.447a2.322 2.322 0 01-.838.148c-.488 0-1.018-.16-1.59-.483-.43-.26-.738-.533-.925-.818a1.727 1.727 0 01-.279-.93c0-.409.115-.83.344-1.264.243-.434.53-.868.86-1.302l3.61-4.499-3.61-4.536a12.32 12.32 0 01-.86-1.283c-.23-.421-.344-.837-.344-1.246 0-.322.093-.626.28-.91.186-.298.494-.577.923-.837.573-.322 1.104-.484 1.59-.484.301 0 .58.056.839.168.257.099.5.241.73.427.244.186.473.403.688.651.215.236.422.49.623.762l2.664 3.124 2.579-3.124c.215-.272.43-.526.645-.762.214-.248.436-.465.666-.65a3.04 3.04 0 01.752-.428c.272-.112.558-.168.86-.168z" fill="url(#paint5_linear)" fill-opacity=".12"/><path d="M51.226 55.928c.244 0 .502.038.774.112.272.074.558.198.86.372.429.248.737.514.923.8.186.284.28.588.28.91 0 .41-.115.837-.344 1.283-.23.446-.516.874-.86 1.283l-3.825 4.536 3.825 4.5c.33.433.609.867.838 1.301.244.434.365.855.365 1.264 0 .323-.093.632-.279.93-.186.297-.494.57-.924.818-.573.322-1.103.483-1.59.483-.3 0-.587-.055-.86-.167a3.59 3.59 0 01-.752-.446 6.635 6.635 0 01-.687-.651 67.313 67.313 0 01-.666-.78l-2.579-3.124-2.664 3.123c-.2.285-.408.552-.623.8a4.629 4.629 0 01-.688.65c-.23.186-.473.335-.73.447a2.327 2.327 0 01-.839.148c-.487 0-1.017-.16-1.59-.483-.43-.26-.738-.533-.924-.818a1.727 1.727 0 01-.28-.93c0-.409.115-.83.345-1.264.243-.434.53-.868.86-1.302l3.61-4.499-3.61-4.536c-.33-.434-.617-.861-.86-1.283-.23-.421-.344-.837-.344-1.246 0-.322.093-.626.28-.91.185-.298.493-.577.923-.837.573-.322 1.103-.484 1.59-.484.301 0 .58.056.838.168.258.099.502.241.731.427.243.186.473.403.688.651.215.236.422.49.623.762l2.664 3.124 2.579-3.124c.215-.272.43-.526.644-.762.215-.248.437-.465.666-.65a2.98 2.98 0 01.753-.428c.272-.112.558-.168.86-.168z" fill="url(#paint6_linear)" fill-opacity=".12"/><path d="M79.303 55.928c.243 0 .501.038.773.112.273.074.56.198.86.372.43.248.738.514.924.8.186.284.28.588.28.91 0 .41-.115.837-.344 1.283-.23.446-.516.874-.86 1.283l-3.825 4.536 3.825 4.5c.33.433.609.867.838 1.301.244.434.365.855.365 1.264 0 .323-.093.632-.279.93-.186.297-.494.57-.924.818-.573.322-1.103.483-1.59.483-.3 0-.587-.055-.86-.167a3.592 3.592 0 01-.752-.446 6.635 6.635 0 01-.687-.651 67.313 67.313 0 01-.666-.78l-2.579-3.124-2.664 3.123c-.201.285-.409.552-.624.8a4.629 4.629 0 01-.687.65c-.23.186-.473.335-.73.447a2.327 2.327 0 01-.839.148c-.487 0-1.017-.16-1.59-.483-.43-.26-.738-.533-.924-.818a1.727 1.727 0 01-.28-.93c0-.409.115-.83.345-1.264.243-.434.53-.868.86-1.302l3.61-4.499-3.61-4.536c-.33-.434-.617-.861-.86-1.283-.23-.421-.344-.837-.344-1.246 0-.322.093-.626.28-.91.185-.298.493-.577.923-.837.573-.322 1.103-.484 1.59-.484.301 0 .58.056.838.168.258.099.502.241.73.427.244.186.474.403.688.651.215.236.423.49.624.762l2.664 3.124 2.579-3.124c.215-.272.43-.526.644-.762.215-.248.437-.465.666-.65a3.04 3.04 0 01.752-.428c.273-.112.56-.168.86-.168z" fill="url(#paint7_linear)" fill-opacity=".12"/><path d="M97.152 65.596c-.401 0-.788-.018-1.16-.056a2.986 2.986 0 01-.99-.297 1.85 1.85 0 01-.687-.67c-.172-.297-.258-.7-.258-1.208 0-.545.086-.973.258-1.283.172-.31.401-.539.688-.688.286-.148.616-.241.988-.279.373-.037.76-.055 1.16-.055h9.498c.358 0 .724.018 1.096.055.373.038.702.13.989.28.3.148.544.377.73.687.186.31.279.738.279 1.283 0 .508-.093.911-.279 1.209-.186.285-.43.508-.73.669a2.989 2.989 0 01-.989.297c-.372.038-.738.056-1.096.056h-9.497z" fill="url(#paint8_linear)" fill-opacity=".12"/><path d="M23.45 101.408c.244 0 .502.037.774.112.272.074.558.198.86.372.429.247.737.514.923.799.186.285.28.589.28.911 0 .409-.115.837-.344 1.283-.23.446-.516.874-.86 1.283l-3.825 4.536 3.825 4.499c.33.434.609.868.838 1.302.244.434.366.855.366 1.264 0 .322-.094.632-.28.93-.186.297-.494.57-.924.818-.573.322-1.103.483-1.59.483-.3 0-.587-.056-.86-.167a3.609 3.609 0 01-.752-.447 6.52 6.52 0 01-.687-.65 65.692 65.692 0 01-.666-.781l-2.579-3.124-2.664 3.124c-.2.285-.409.551-.623.799a4.631 4.631 0 01-.688.651 3.11 3.11 0 01-.73.446 2.319 2.319 0 01-.839.149c-.487 0-1.017-.161-1.59-.483-.43-.261-.737-.533-.924-.818a1.73 1.73 0 01-.28-.93c0-.409.116-.83.345-1.264.243-.434.53-.868.86-1.302l3.61-4.499-3.61-4.536c-.33-.434-.617-.862-.86-1.283-.23-.422-.344-.837-.344-1.246 0-.322.093-.626.28-.911.186-.297.494-.576.923-.836.573-.323 1.103-.484 1.59-.484.301 0 .58.056.838.167.258.1.502.242.731.428.243.186.473.403.688.651a9.2 9.2 0 01.623.762l2.664 3.124 2.579-3.124c.215-.273.43-.527.644-.762.215-.248.437-.465.666-.651.244-.186.495-.328.753-.428.272-.111.558-.167.86-.167z" fill="url(#paint9_linear)" fill-opacity=".12"/><path d="M51.527 101.408c.243 0 .501.037.773.112.273.074.56.198.86.372.43.247.738.514.924.799.186.285.28.589.28.911 0 .409-.115.837-.344 1.283-.23.446-.516.874-.86 1.283l-3.825 4.536 3.825 4.499c.33.434.609.868.838 1.302.244.434.365.855.365 1.264 0 .322-.093.632-.279.93-.186.297-.494.57-.924.818-.573.322-1.103.483-1.59.483-.3 0-.587-.056-.86-.167a3.607 3.607 0 01-.752-.447 6.52 6.52 0 01-.687-.65 65.71 65.71 0 01-.666-.781l-2.579-3.124-2.664 3.124c-.201.285-.409.551-.624.799a4.631 4.631 0 01-.687.651c-.23.186-.473.335-.73.446a2.318 2.318 0 01-.839.149c-.487 0-1.017-.161-1.59-.483-.43-.261-.738-.533-.924-.818a1.73 1.73 0 01-.28-.93c0-.409.115-.83.345-1.264.243-.434.53-.868.86-1.302l3.609-4.499-3.61-4.536a12.39 12.39 0 01-.86-1.283c-.229-.422-.343-.837-.343-1.246 0-.322.093-.626.28-.911.185-.297.493-.576.923-.836.573-.323 1.103-.484 1.59-.484.301 0 .58.056.838.167.258.1.502.242.73.428.244.186.474.403.688.651a9.2 9.2 0 01.624.762l2.664 3.124 2.579-3.124c.215-.273.43-.527.644-.762.215-.248.437-.465.666-.651.244-.186.495-.328.752-.428.273-.111.56-.167.86-.167z" fill="url(#paint10_linear)" fill-opacity=".12"/><path d="M79.604 101.408c.243 0 .501.037.773.112.273.074.559.198.86.372.43.247.738.514.924.799.186.285.28.589.28.911 0 .409-.115.837-.345 1.283a6.89 6.89 0 01-.86 1.283l-3.824 4.536 3.825 4.499c.33.434.609.868.838 1.302.243.434.365.855.365 1.264 0 .322-.093.632-.28.93-.185.297-.493.57-.923.818-.573.322-1.103.483-1.59.483-.301 0-.588-.056-.86-.167a3.609 3.609 0 01-.752-.447 6.53 6.53 0 01-.688-.65 66.66 66.66 0 01-.666-.781l-2.578-3.124-2.665 3.124a9.9 9.9 0 01-.623.799 4.621 4.621 0 01-.687.651c-.23.186-.473.335-.731.446a2.318 2.318 0 01-.838.149c-.487 0-1.017-.161-1.59-.483-.43-.261-.738-.533-.924-.818a1.73 1.73 0 01-.28-.93c0-.409.115-.83.344-1.264.244-.434.53-.868.86-1.302l3.61-4.499-3.61-4.536a12.39 12.39 0 01-.86-1.283c-.229-.422-.343-.837-.343-1.246 0-.322.093-.626.279-.911.186-.297.494-.576.924-.836.573-.323 1.103-.484 1.59-.484.3 0 .58.056.838.167.258.1.501.242.73.428.244.186.473.403.688.651a9.2 9.2 0 01.623.762l2.665 3.124 2.578-3.124c.215-.273.43-.527.645-.762.215-.248.437-.465.666-.651a3.07 3.07 0 01.752-.428c.272-.111.559-.167.86-.167z" fill="url(#paint11_linear)" fill-opacity=".12"/><path d="M107.681 101.408c.243 0 .501.037.773.112.272.074.559.198.86.372.429.247.737.514.924.799.186.285.279.589.279.911 0 .409-.115.837-.344 1.283a6.911 6.911 0 01-.859 1.283l-3.825 4.536 3.825 4.499c.329.434.609.868.838 1.302.243.434.365.855.365 1.264 0 .322-.093.632-.279.93-.187.297-.495.57-.924.818-.573.322-1.103.483-1.59.483-.301 0-.588-.056-.86-.167a3.617 3.617 0 01-.752-.447 6.62 6.62 0 01-.688-.65 73.008 73.008 0 01-.666-.781l-2.578-3.124-2.665 3.124a9.9 9.9 0 01-.623.799 4.631 4.631 0 01-.688.651 3.098 3.098 0 01-.73.446 2.319 2.319 0 01-.838.149c-.487 0-1.017-.161-1.59-.483-.43-.261-.738-.533-.924-.818a1.73 1.73 0 01-.28-.93c0-.409.115-.83.344-1.264.244-.434.53-.868.86-1.302l3.61-4.499-3.61-4.536a12.39 12.39 0 01-.86-1.283c-.229-.422-.344-.837-.344-1.246 0-.322.094-.626.28-.911.186-.297.494-.576.924-.836.573-.323 1.103-.484 1.59-.484.3 0 .58.056.838.167.258.1.501.242.73.428.244.186.473.403.688.651.215.235.423.489.623.762l2.665 3.124 2.578-3.124c.215-.273.43-.527.645-.762.215-.248.437-.465.666-.651a3.07 3.07 0 01.752-.428c.272-.111.559-.167.86-.167z" fill="url(#paint12_linear)" fill-opacity=".12"/><defs><linearGradient id="paint0_linear" x1="0" y1="11.111" x2="132.5" y2="25.688" gradientUnits="userSpaceOnUse"><stop stop-color="#23B3F6"/><stop offset="1" stop-color="#17AAEE"/></linearGradient><linearGradient id="paint1_linear" x1="0" y1="11.111" x2="132.5" y2="25.688" gradientUnits="userSpaceOnUse"><stop stop-color="#23B3F6"/><stop offset="1" stop-color="#17AAEE"/></linearGradient><linearGradient id="paint2_linear" x1="0" y1="11.111" x2="132.5" y2="25.688" gradientUnits="userSpaceOnUse"><stop stop-color="#23B3F6"/><stop offset="1" stop-color="#17AAEE"/></linearGradient><linearGradient id="paint3_linear" x1="0" y1="11.111" x2="132.5" y2="25.688" gradientUnits="userSpaceOnUse"><stop stop-color="#23B3F6"/><stop offset="1" stop-color="#17AAEE"/></linearGradient><linearGradient id="paint4_linear" x1="0" y1="11.111" x2="132.5" y2="25.688" gradientUnits="userSpaceOnUse"><stop stop-color="#23B3F6"/><stop offset="1" stop-color="#17AAEE"/></linearGradient><linearGradient id="paint5_linear" x1="0" y1="11.111" x2="132.5" y2="25.688" gradientUnits="userSpaceOnUse"><stop stop-color="#23B3F6"/><stop offset="1" stop-color="#17AAEE"/></linearGradient><linearGradient id="paint6_linear" x1="0" y1="11.111" x2="132.5" y2="25.688" gradientUnits="userSpaceOnUse"><stop stop-color="#23B3F6"/><stop offset="1" stop-color="#17AAEE"/></linearGradient><linearGradient id="paint7_linear" x1="0" y1="11.111" x2="132.5" y2="25.688" gradientUnits="userSpaceOnUse"><stop stop-color="#23B3F6"/><stop offset="1" stop-color="#17AAEE"/></linearGradient><linearGradient id="paint8_linear" x1="0" y1="11.111" x2="132.5" y2="25.688" gradientUnits="userSpaceOnUse"><stop stop-color="#23B3F6"/><stop offset="1" stop-color="#17AAEE"/></linearGradient><linearGradient id="paint9_linear" x1="0" y1="11.111" x2="132.5" y2="25.688" gradientUnits="userSpaceOnUse"><stop stop-color="#23B3F6"/><stop offset="1" stop-color="#17AAEE"/></linearGradient><linearGradient id="paint10_linear" x1="0" y1="11.111" x2="132.5" y2="25.688" gradientUnits="userSpaceOnUse"><stop stop-color="#23B3F6"/><stop offset="1" stop-color="#17AAEE"/></linearGradient><linearGradient id="paint11_linear" x1="0" y1="11.111" x2="132.5" y2="25.688" gradientUnits="userSpaceOnUse"><stop stop-color="#23B3F6"/><stop offset="1" stop-color="#17AAEE"/></linearGradient><linearGradient id="paint12_linear" x1="0" y1="11.111" x2="132.5" y2="25.688" gradientUnits="userSpaceOnUse"><stop stop-color="#23B3F6"/><stop offset="1" stop-color="#17AAEE"/></linearGradient></defs></svg>