<svg width="120" height="120" fill="none" xmlns="http://www.w3.org/2000/svg"><g clip-path="url(#clip0)" fill-opacity=".1"><path d="M62.948 71.334a3.047 3.047 0 00-3.047 3.047c-.001 7.887-6.396 14.28-14.283 14.278-7.887-.001-14.28-6.396-14.278-14.282.002-7.886 6.395-14.279 14.28-14.279a3.047 3.047 0 100-6.093c-11.25.007-20.368 9.126-20.376 20.376 0 11.253 9.123 20.376 20.376 20.376 11.253 0 20.375-9.123 20.375-20.376a3.047 3.047 0 00-3.047-3.047z" fill="url(#paint0_linear)"/><path d="M87.155 81.39a3.047 3.047 0 00-3.528-2.476l-6.377 1.118a3.047 3.047 0 00-2.416 2.21 30.065 30.065 0 01-2.993 7.212 3.047 3.047 0 00.145 3.281l3.722 5.304c.52.739.433 1.745-.206 2.384l-3.825 3.825a1.856 1.856 0 01-2.382.208l-5.304-3.722a3.047 3.047 0 00-3.28-.145 30.058 30.058 0 01-7.213 2.993 3.048 3.048 0 00-2.21 2.417l-1.132 6.37a1.856 1.856 0 01-1.83 1.537h-5.412a1.856 1.856 0 01-1.83-1.537l-1.118-6.375a3.048 3.048 0 00-2.21-2.417 30.084 30.084 0 01-7.215-2.993 3.046 3.046 0 00-3.28.146l-5.295 3.719a1.856 1.856 0 01-2.384-.206l-3.825-3.825a1.859 1.859 0 01-.209-2.381l3.722-5.304a3.047 3.047 0 00.146-3.281 30.002 30.002 0 01-2.993-7.212 3.047 3.047 0 00-2.417-2.21l-6.375-1.118a1.856 1.856 0 01-1.537-1.826v-5.412a1.856 1.856 0 011.537-1.83l6.375-1.118a3.047 3.047 0 002.417-2.21 30.005 30.005 0 012.993-7.22 3.047 3.047 0 00-.146-3.28l-3.72-5.288a1.856 1.856 0 01.207-2.383l3.827-3.828a1.856 1.856 0 012.382-.206l5.303 3.722a3.046 3.046 0 003.282.145 30.061 30.061 0 017.214-2.993 3.047 3.047 0 002.21-2.416l1.118-6.375a3.047 3.047 0 10-6.002-1.052l-.793 4.523a36.154 36.154 0 00-5.06 2.11l-3.761-2.64a7.938 7.938 0 00-10.191.889l-3.84 3.813a7.943 7.943 0 00-.885 10.19L13.2 57.99a36.11 36.11 0 00-2.11 5.063l-4.523.792A7.94 7.94 0 000 71.674v5.412a7.94 7.94 0 006.577 7.833l4.523.794a36.096 36.096 0 002.11 5.06l-2.65 3.762a7.943 7.943 0 00.89 10.191l3.827 3.825a7.941 7.941 0 0010.19.886l3.75-2.639a36.172 36.172 0 005.06 2.109l.792 4.524A7.94 7.94 0 0042.914 120h5.412a7.94 7.94 0 007.833-6.579l.794-4.523a36.048 36.048 0 005.06-2.11l3.764 2.639a7.94 7.94 0 0010.191-.888l3.827-3.827a7.943 7.943 0 00.889-10.19l-2.637-3.75a36.198 36.198 0 002.11-5.061l4.523-.794a3.047 3.047 0 002.475-3.528z" fill="url(#paint1_linear)"/><path d="M114.282 27.656l-3.188-.558a29.198 29.198 0 00-1.406-3.363l1.875-2.641a6.902 6.902 0 00-.771-8.857l-3.019-3.026a6.905 6.905 0 00-8.866-.773l-2.651 1.858a29.084 29.084 0 00-3.363-1.406l-.549-3.174A6.902 6.902 0 0085.534 0H81.27a6.902 6.902 0 00-6.809 5.719l-.56 3.187a29.18 29.18 0 00-3.363 1.406l-2.65-1.874a6.902 6.902 0 00-8.858.77l-3.014 3.02a6.905 6.905 0 00-.773 8.866l1.858 2.65a29.096 29.096 0 00-1.406 3.364l-3.176.548a6.903 6.903 0 00-5.716 6.809v4.263a6.903 6.903 0 005.716 6.813l3.185.558c.398 1.15.868 2.273 1.407 3.364l-1.861 2.65a6.905 6.905 0 00.766 8.857l3.014 3.014a6.902 6.902 0 008.86.771l2.657-1.858a29.198 29.198 0 003.364 1.406l.56 3.188a6.902 6.902 0 006.808 5.716h4.264a6.902 6.902 0 006.801-5.728l.558-3.185a29.096 29.096 0 003.363-1.406l2.642 1.87a6.902 6.902 0 008.866-.774l3.017-3.016a6.905 6.905 0 00.773-8.855l-1.863-2.66a29.213 29.213 0 001.406-3.363l3.187-.56a6.902 6.902 0 005.707-6.8v-4.263a6.9 6.9 0 00-5.718-6.81zm-.375 11.081a.819.819 0 01-.678.807l-5.025.881a3.046 3.046 0 00-2.416 2.21 23.034 23.034 0 01-2.295 5.53 3.047 3.047 0 00.146 3.28l2.932 4.182a.818.818 0 01-.092 1.05l-3.014 3.014a.818.818 0 01-1.043.075l-4.188-2.93a3.047 3.047 0 00-3.281-.145 23.028 23.028 0 01-5.53 2.294 3.047 3.047 0 00-2.2 2.421l-.881 5.025a.818.818 0 01-.806.678H81.27a.818.818 0 01-.806-.678l-.884-5.025a3.047 3.047 0 00-2.21-2.416 23.067 23.067 0 01-5.531-2.295 3.046 3.046 0 00-3.281.146l-4.17 2.925a.818.818 0 01-1.05-.092l-3.014-3.014a.818.818 0 01-.092-1.05l2.932-4.181a3.046 3.046 0 00.146-3.281 23 23 0 01-2.295-5.53 3.047 3.047 0 00-2.42-2.198l-5.026-.88a.818.818 0 01-.677-.807l.002-4.266c0-.398.286-.738.678-.806l5.022-.884a3.047 3.047 0 002.417-2.21 23.024 23.024 0 012.294-5.529 3.046 3.046 0 00-.145-3.281l-2.925-4.179a.818.818 0 01.091-1.05l3.017-3.016a.818.818 0 011.05-.092l4.178 2.932a3.047 3.047 0 003.282.146 23.024 23.024 0 015.529-2.295 3.047 3.047 0 002.21-2.416l.881-5.025a.818.818 0 01.797-.668h4.263c.398 0 .738.285.806.677l.882 5.025a3.047 3.047 0 002.21 2.417 23.005 23.005 0 015.529 2.294c1.028.596 2.31.54 3.281-.145l4.181-2.932a.818.818 0 011.05.091l3.017 3.017a.817.817 0 01.082 1.04l-2.932 4.188a3.047 3.047 0 00-.146 3.282 23.034 23.034 0 012.295 5.529 3.046 3.046 0 002.416 2.21l5.025.881a.818.818 0 01.678.806v4.264z" fill="url(#paint2_linear)"/><path d="M83.4 22.043c-8.039 0-14.556 6.518-14.556 14.557.009 8.036 6.521 14.548 14.557 14.557 8.04 0 14.557-6.517 14.557-14.557S91.44 22.043 83.4 22.043zm0 23.02a8.463 8.463 0 01-8.463-8.463 8.473 8.473 0 018.464-8.475v.012a8.463 8.463 0 010 16.926z" fill="url(#paint3_linear)"/></g><defs><linearGradient id="paint0_linear" x1="25.244" y1="57.778" x2="70.24" y2="62.728" gradientUnits="userSpaceOnUse"><stop stop-color="#23B3F6"/><stop offset="1" stop-color="#17AAEE"/></linearGradient><linearGradient id="paint1_linear" x1="0" y1="40.892" x2="96.284" y2="51.488" gradientUnits="userSpaceOnUse"><stop stop-color="#23B3F6"/><stop offset="1" stop-color="#17AAEE"/></linearGradient><linearGradient id="paint2_linear" x1="46.803" y1="6.778" x2="127.625" y2="15.669" gradientUnits="userSpaceOnUse"><stop stop-color="#23B3F6"/><stop offset="1" stop-color="#17AAEE"/></linearGradient><linearGradient id="paint3_linear" x1="68.844" y1="24.739" x2="100.99" y2="28.275" gradientUnits="userSpaceOnUse"><stop stop-color="#23B3F6"/><stop offset="1" stop-color="#17AAEE"/></linearGradient><clipPath id="clip0"><path fill="#fff" d="M0 0h120v120H0z"/></clipPath></defs></svg>