<svg width="935" height="326" fill="none" xmlns="http://www.w3.org/2000/svg"><path opacity=".2" fill-rule="evenodd" clip-rule="evenodd" d="M921.436 10.677c.231.275.563.455.973.449.193.012.392-.012.586-.078l4.76-1.628a1.52 1.52 0 00.311-.148l2.781-.95-2.849 5.579c-.818 1.602 1.614 2.771 2.432 1.17l4.323-8.482a1.307 1.307 0 00-.599-1.777L925.579.683a1.38 1.38 0 00-1.064-.066c-1.162.392-1.266 1.965-.164 2.47l5.65 2.413-2.846 1.004a1.5 1.5 0 00-.371.077l-4.76 1.628c-.185.063-.35.16-.49.28l-.034.011c-.053.054-.102.11-.145.17a1.5 1.5 0 00.081 2.007zm-6.056 2.976a1.5 1.5 0 00-.971-2.839l-9.52 3.256a1.5 1.5 0 00.971 2.839l9.52-3.256zm-17.135 5.86a1.5 1.5 0 10-.971-2.838l-9.519 3.256a1.5 1.5 0 10.971 2.839l9.519-3.256zm-17.135 5.862a1.5 1.5 0 10-.971-2.839l-9.519 3.256a1.5 1.5 0 10.971 2.839l9.519-3.256zm-17.134 5.861a1.5 1.5 0 10-.971-2.839l-9.519 3.257a1.5 1.5 0 00.97 2.838l9.52-3.256zm-17.135 5.861a1.5 1.5 0 10-.971-2.839l-9.519 3.257a1.5 1.5 0 10.971 2.838l9.519-3.256zm-17.134 5.861a1.5 1.5 0 00-.971-2.838l-9.52 3.256a1.5 1.5 0 00.971 2.838l9.52-3.256zm-17.135 5.861a1.5 1.5 0 10-.971-2.838l-9.519 3.256a1.5 1.5 0 10.971 2.838l9.519-3.256zm-17.135 5.861a1.5 1.5 0 10-.971-2.838l-9.519 3.256a1.5 1.5 0 10.971 2.839l9.519-3.257zm-17.134 5.861a1.5 1.5 0 10-.971-2.838l-9.52 3.256a1.5 1.5 0 00.972 2.839l9.519-3.257zm-17.135 5.862a1.5 1.5 0 10-.971-2.839l-9.519 3.256a1.5 1.5 0 10.971 2.839l9.519-3.256zm-17.134 5.86a1.5 1.5 0 00-.971-2.838l-9.52 3.256a1.5 1.5 0 00.971 2.839l9.52-3.256zm-17.135 5.862a1.5 1.5 0 10-.971-2.839l-9.519 3.256a1.5 1.5 0 10.971 2.839l9.519-3.256zm-17.135 5.86a1.5 1.5 0 10-.971-2.838l-9.519 3.257a1.5 1.5 0 10.971 2.838l9.519-3.256zm-17.134 5.862a1.5 1.5 0 10-.971-2.838l-9.519 3.256a1.5 1.5 0 10.971 2.838l9.519-3.256zm-17.135 5.861a1.5 1.5 0 10-.971-2.838l-9.519 3.256a1.5 1.5 0 10.971 2.838l9.519-3.256zm-17.135 5.861a1.5 1.5 0 00-.97-2.838l-9.52 3.256a1.499 1.499 0 10.971 2.838l9.519-3.256zm-17.134 5.861a1.5 1.5 0 10-.971-2.838l-9.519 3.256a1.5 1.5 0 00.971 2.839l9.519-3.257zm-17.135 5.861a1.5 1.5 0 10-.971-2.838l-9.519 3.256a1.5 1.5 0 00.971 2.839l9.519-3.257zm-17.134 5.862a1.5 1.5 0 00-.971-2.839l-9.52 3.256a1.5 1.5 0 00.972 2.839l9.519-3.256zm-17.135 5.861a1.5 1.5 0 00-.971-2.839l-9.519 3.256a1.5 1.5 0 00.971 2.839l9.519-3.256zm-17.134 5.861a1.5 1.5 0 00-.971-2.839l-9.52 3.256a1.5 1.5 0 00.971 2.839l9.52-3.256zm-17.135 5.861a1.5 1.5 0 00-.971-2.839l-9.519 3.257a1.5 1.5 0 10.971 2.838l9.519-3.256zm-17.135 5.861a1.5 1.5 0 00-.971-2.839l-9.519 3.257a1.5 1.5 0 10.971 2.838l9.519-3.256zm-17.134 5.861a1.499 1.499 0 10-.971-2.838l-9.52 3.256a1.5 1.5 0 00.971 2.838l9.52-3.256zm-17.135 5.861a1.5 1.5 0 10-.971-2.838l-9.519 3.256a1.5 1.5 0 10.971 2.838l9.519-3.256zm-17.135 5.861a1.5 1.5 0 10-.971-2.838l-9.519 3.256a1.5 1.5 0 10.971 2.838l9.519-3.256zm-17.134 5.861a1.5 1.5 0 10-.971-2.838l-9.519 3.256a1.5 1.5 0 00.971 2.839l9.519-3.257zm-17.135 5.862a1.5 1.5 0 00-.971-2.839l-9.519 3.256a1.5 1.5 0 00.971 2.839l9.519-3.256zm-17.134 5.861a1.5 1.5 0 00-.971-2.839l-9.52 3.256a1.5 1.5 0 00.971 2.839l9.52-3.256zm-17.135 5.861a1.5 1.5 0 00-.971-2.839l-9.519 3.256a1.5 1.5 0 00.971 2.839l9.519-3.256zm-17.135 5.861a1.5 1.5 0 00-.971-2.839l-9.519 3.257a1.5 1.5 0 10.971 2.838l9.519-3.256zm-17.134 5.861a1.5 1.5 0 00-.971-2.839l-9.519 3.257a1.5 1.5 0 10.971 2.838l9.519-3.256zm-17.135 5.861a1.5 1.5 0 10-.971-2.838l-9.519 3.256a1.5 1.5 0 10.971 2.838l9.519-3.256zm-17.134 5.861a1.5 1.5 0 00-.971-2.838l-9.52 3.256a1.5 1.5 0 00.971 2.838l9.52-3.256zm-17.135 5.861a1.5 1.5 0 10-.971-2.838l-9.519 3.256a1.5 1.5 0 10.971 2.838l9.519-3.256zm-17.135 5.861a1.5 1.5 0 10-.971-2.838l-9.519 3.256a1.5 1.5 0 00.971 2.839l9.519-3.257zm-17.134 5.862a1.5 1.5 0 00-.971-2.839l-9.519 3.256a1.5 1.5 0 00.971 2.839l9.519-3.256zm-17.135 5.861a1.5 1.5 0 00-.971-2.839l-9.519 3.256a1.5 1.5 0 00.971 2.839l9.519-3.256zm-17.134 5.861a1.5 1.5 0 00-.971-2.839l-9.52 3.256a1.5 1.5 0 00.971 2.839l9.52-3.256zm-17.135 5.861a1.5 1.5 0 00-.971-2.839l-9.519 3.257a1.5 1.5 0 10.971 2.838l9.519-3.256zm-17.135 5.861a1.5 1.5 0 00-.971-2.839l-9.519 3.257a1.5 1.5 0 10.971 2.838l9.519-3.256zm-17.134 5.861a1.5 1.5 0 10-.971-2.838l-9.519 3.256a1.5 1.5 0 10.971 2.838l9.519-3.256zm-17.135 5.861a1.5 1.5 0 10-.971-2.838l-9.519 3.256a1.5 1.5 0 10.971 2.838l9.519-3.256zm-17.134 5.861a1.5 1.5 0 00-.971-2.838l-9.52 3.256a1.5 1.5 0 00.971 2.838l9.52-3.256zm-17.135 5.861a1.5 1.5 0 10-.971-2.838l-9.519 3.256a1.5 1.5 0 00.971 2.839l9.519-3.257zm-17.135 5.862a1.5 1.5 0 00-.971-2.839l-9.519 3.256a1.5 1.5 0 00.971 2.839l9.519-3.256zm-17.134 5.861a1.5 1.5 0 00-.971-2.839l-9.519 3.256a1.5 1.5 0 00.971 2.839l9.519-3.256zm-17.135 5.861a1.5 1.5 0 00-.971-2.839l-9.519 3.256a1.5 1.5 0 00.971 2.839l9.519-3.256zm-17.135 5.861a1.5 1.5 0 00-.97-2.839l-9.52 3.257a1.499 1.499 0 10.971 2.838l9.52-3.256zm-17.134 5.861a1.5 1.5 0 00-.971-2.839l-9.52 3.257a1.499 1.499 0 10.972 2.838l9.519-3.256zm-17.135 5.861a1.5 1.5 0 10-.97-2.838l-9.52 3.256a1.5 1.5 0 10.971 2.838l9.52-3.256zm-17.134 5.861a1.5 1.5 0 00-.971-2.838l-9.52 3.256a1.5 1.5 0 00.971 2.838l9.52-3.256zM24.38 318.43a1.5 1.5 0 10-.97-2.838l-9.52 3.256a1.5 1.5 0 00.97 2.838l9.52-3.256zm-17.134 5.861a1.5 1.5 0 10-.971-2.838l-4.76 1.628a1.5 1.5 0 10.97 2.838l4.76-1.628z" fill="#606887"/></svg>